<svg width="44" height="44" viewBox="0 0 44 44" fill="none" xmlns="http://www.w3.org/2000/svg">
<path d="M12 32V19.5M22 32V12M32 32V27M37 2H7C5.67392 2 4.40215 2.52678 3.46447 3.46447C2.52678 4.40215 2 5.67392 2 7V37C2 38.3261 2.52678 39.5979 3.46447 40.5355C4.40215 41.4732 5.67392 42 7 42H37C38.3261 42 39.5979 41.4732 40.5355 40.5355C41.4732 39.5979 42 38.3261 42 37V7C42 5.67392 41.4732 4.40215 40.5355 3.46447C39.5979 2.52678 38.3261 2 37 2Z" stroke="black" stroke-width="4" stroke-linecap="round" stroke-linejoin="round"/>
</svg>
