<svg width="33" height="34" viewBox="0 0 33 34" fill="none" xmlns="http://www.w3.org/2000/svg">
<path d="M8.94336 24.5V15.125M16.4434 24.5V9.5M23.9434 24.5V20.75M27.6934 2H5.19336C4.1988 2 3.24497 2.39509 2.54171 3.09835C1.83845 3.80161 1.44336 4.75544 1.44336 5.75V28.25C1.44336 29.2446 1.83845 30.1984 2.54171 30.9016C3.24497 31.6049 4.1988 32 5.19336 32H27.6934C28.6879 32 29.6417 31.6049 30.345 30.9016C31.0483 30.1984 31.4434 29.2446 31.4434 28.25V5.75C31.4434 4.75544 31.0483 3.80161 30.345 3.09835C29.6417 2.39509 28.6879 2 27.6934 2Z" stroke="#EF5A3C" stroke-width="2.5" stroke-linecap="round" stroke-linejoin="round"/>
</svg>
