<svg width="62" height="62" viewBox="0 0 62 62" fill="none" xmlns="http://www.w3.org/2000/svg">
<path d="M1.23223 57.2322C0.255922 58.2085 0.255922 59.7915 1.23223 60.7678C2.20854 61.7441 3.79146 61.7441 4.76777 60.7678L1.23223 57.2322ZM61.5 3C61.5 1.61929 60.3807 0.499999 59 0.499999L36.5 0.5C35.1193 0.5 34 1.61929 34 3C34 4.38071 35.1193 5.5 36.5 5.5L56.5 5.5L56.5 25.5C56.5 26.8807 57.6193 28 59 28C60.3807 28 61.5 26.8807 61.5 25.5L61.5 3ZM4.76777 60.7678L60.7678 4.76777L57.2322 1.23223L1.23223 57.2322L4.76777 60.7678Z" fill="#EF5A3C"/>
</svg>
