<svg width="121" height="121" viewBox="0 0 121 121" fill="none" xmlns="http://www.w3.org/2000/svg">
<g filter="url(#filter0_d_261_6156)">
<circle cx="60.5" cy="58.5" r="54.5" fill="white"/>
</g>
<g filter="url(#filter1_d_261_6156)">
<path d="M29.8999 65.4591V34.7415C29.8999 33.6567 30.3103 32.7278 31.1312 31.9547C31.9507 31.1829 32.9363 30.797 34.088 30.797H67.5932C68.7449 30.797 69.7312 31.1829 70.5521 31.9547C71.3716 32.7278 71.7813 33.6567 71.7813 34.7415V58.4083C71.7813 59.4931 71.3716 60.422 70.5521 61.1951C69.7312 61.9669 68.7449 62.3528 67.5932 62.3528H38.2762L33.4598 66.889C32.7967 67.5135 32.0372 67.6529 31.1815 67.3071C30.3271 66.9626 29.8999 66.3466 29.8999 65.4591Z" fill="#FFF4EC"/>
<path d="M38.2762 61.8528H38.0778L37.9334 61.9888L33.117 66.525C32.8428 66.7833 32.5717 66.9207 32.3026 66.9701C32.0331 67.0196 31.7261 66.9879 31.3688 66.8435L31.3684 66.8434C31.0109 66.6992 30.7776 66.513 30.6312 66.3018C30.4856 66.092 30.3999 65.8202 30.3999 65.4591V34.7415C30.3999 33.8006 30.749 33.0015 31.474 32.3187C32.1984 31.6365 33.0605 31.297 34.088 31.297H67.5932C68.6206 31.297 69.4834 31.6364 70.2092 32.3186C70.9328 33.0013 71.2813 33.8004 71.2813 34.7415V58.4083C71.2813 59.3494 70.9327 60.1485 70.2092 60.8312C69.4834 61.5135 68.6206 61.8528 67.5932 61.8528H38.2762Z" stroke="#CE7636" stroke-opacity="0.5"/>
</g>
<line x1="36.7869" y1="40.3125" x2="64.0569" y2="40.3125" stroke="#CE7636" stroke-opacity="0.5" stroke-linecap="round"/>
<line x1="36.7869" y1="44.257" x2="64.0569" y2="44.257" stroke="#CE7636" stroke-opacity="0.5" stroke-linecap="round"/>
<line x1="36.7869" y1="48.2014" x2="64.0569" y2="48.2014" stroke="#CE7636" stroke-opacity="0.5" stroke-linecap="round"/>
<g filter="url(#filter2_d_261_6156)">
<path d="M69.6872 48.5981L67.9164 47.0798C61.6269 41.7084 57.4746 38.1543 57.4746 33.818C57.4746 30.2639 60.4301 27.4919 64.1916 27.4919C66.3165 27.4919 68.3561 28.4236 69.6872 29.8844C71.0184 28.4236 73.0579 27.4919 75.1829 27.4919C78.9444 27.4919 81.8999 30.2639 81.8999 33.818C81.8999 38.1543 77.7476 41.7084 71.4581 47.0798L69.6872 48.5981Z" fill="#EC904E"/>
<path d="M68.296 46.6371L68.2951 46.6364C65.1384 43.9404 62.5667 41.7402 60.7774 39.6785C58.9932 37.6226 58.0578 35.7827 58.0578 33.818C58.0578 30.6191 60.718 28.0751 64.1916 28.0751C66.1528 28.0751 68.0358 28.938 69.2562 30.2772L69.6872 30.7502L70.1183 30.2772C71.3387 28.938 73.2216 28.0751 75.1829 28.0751C78.6565 28.0751 81.3167 30.6191 81.3167 33.818C81.3167 35.7827 80.3813 37.6226 78.5971 39.6785C76.8078 41.7402 74.2361 43.9404 71.0793 46.6364L71.0785 46.6371L69.6872 47.8299L68.296 46.6371Z" stroke="white" stroke-width="1.16639"/>
</g>
<g filter="url(#filter3_d_261_6156)">
<path d="M83 68.441H83.1313L83.2457 68.3765L87.8457 65.7805C88.3515 65.4951 88.9435 65.4187 89.6583 65.5917L89.6586 65.5918C90.0281 65.6811 90.2477 65.7932 90.3671 65.8964C90.4689 65.9843 90.5 66.0646 90.5 66.1634V83.7426C90.5 84.1082 90.2834 84.504 89.5783 84.902C88.8857 85.2929 88.033 85.5 87 85.5H55C53.967 85.5 53.1135 85.2929 52.4194 84.9018C51.7163 84.5042 51.5 84.1085 51.5 83.7426V70.1984C51.5 69.8325 51.7163 69.4369 52.4194 69.0392C53.1135 68.6481 53.967 68.441 55 68.441H83Z" fill="#FFF4EC" stroke="#EC904E"/>
<line x1="84.3599" y1="78.5549" x2="58.3599" y2="78.5549" stroke="#CE7636" stroke-opacity="0.5" stroke-linecap="round"/>
<line x1="84.3599" y1="74.5549" x2="58.3599" y2="74.5549" stroke="#CE7636" stroke-opacity="0.5" stroke-linecap="round"/>
</g>
<defs>
<filter id="filter0_d_261_6156" x="0" y="0" width="121" height="121" filterUnits="userSpaceOnUse" color-interpolation-filters="sRGB">
<feFlood flood-opacity="0" result="BackgroundImageFix"/>
<feColorMatrix in="SourceAlpha" type="matrix" values="0 0 0 0 0 0 0 0 0 0 0 0 0 0 0 0 0 0 127 0" result="hardAlpha"/>
<feOffset dy="2"/>
<feGaussianBlur stdDeviation="3"/>
<feComposite in2="hardAlpha" operator="out"/>
<feColorMatrix type="matrix" values="0 0 0 0 0 0 0 0 0 0 0 0 0 0 0 0 0 0 0.05 0"/>
<feBlend mode="normal" in2="BackgroundImageFix" result="effect1_dropShadow_261_6156"/>
<feBlend mode="normal" in="SourceGraphic" in2="effect1_dropShadow_261_6156" result="shape"/>
</filter>
<filter id="filter1_d_261_6156" x="25.8999" y="26.797" width="49.8813" height="44.6949" filterUnits="userSpaceOnUse" color-interpolation-filters="sRGB">
<feFlood flood-opacity="0" result="BackgroundImageFix"/>
<feColorMatrix in="SourceAlpha" type="matrix" values="0 0 0 0 0 0 0 0 0 0 0 0 0 0 0 0 0 0 127 0" result="hardAlpha"/>
<feOffset/>
<feGaussianBlur stdDeviation="2"/>
<feComposite in2="hardAlpha" operator="out"/>
<feColorMatrix type="matrix" values="0 0 0 0 0 0 0 0 0 0 0 0 0 0 0 0 0 0 0.1 0"/>
<feBlend mode="normal" in2="BackgroundImageFix" result="effect1_dropShadow_261_6156"/>
<feBlend mode="normal" in="SourceGraphic" in2="effect1_dropShadow_261_6156" result="shape"/>
</filter>
<filter id="filter2_d_261_6156" x="52.809" y="22.8264" width="33.7564" height="30.4373" filterUnits="userSpaceOnUse" color-interpolation-filters="sRGB">
<feFlood flood-opacity="0" result="BackgroundImageFix"/>
<feColorMatrix in="SourceAlpha" type="matrix" values="0 0 0 0 0 0 0 0 0 0 0 0 0 0 0 0 0 0 127 0" result="hardAlpha"/>
<feOffset/>
<feGaussianBlur stdDeviation="2.33278"/>
<feComposite in2="hardAlpha" operator="out"/>
<feColorMatrix type="matrix" values="0 0 0 0 0 0 0 0 0 0 0 0 0 0 0 0 0 0 0.1 0"/>
<feBlend mode="normal" in2="BackgroundImageFix" result="effect1_dropShadow_261_6156"/>
<feBlend mode="normal" in="SourceGraphic" in2="effect1_dropShadow_261_6156" result="shape"/>
</filter>
<filter id="filter3_d_261_6156" x="47" y="61" width="48" height="29" filterUnits="userSpaceOnUse" color-interpolation-filters="sRGB">
<feFlood flood-opacity="0" result="BackgroundImageFix"/>
<feColorMatrix in="SourceAlpha" type="matrix" values="0 0 0 0 0 0 0 0 0 0 0 0 0 0 0 0 0 0 127 0" result="hardAlpha"/>
<feOffset/>
<feGaussianBlur stdDeviation="2"/>
<feComposite in2="hardAlpha" operator="out"/>
<feColorMatrix type="matrix" values="0 0 0 0 0 0 0 0 0 0 0 0 0 0 0 0 0 0 0.1 0"/>
<feBlend mode="normal" in2="BackgroundImageFix" result="effect1_dropShadow_261_6156"/>
<feBlend mode="normal" in="SourceGraphic" in2="effect1_dropShadow_261_6156" result="shape"/>
</filter>
</defs>
</svg>
