<svg width="121" height="121" viewBox="0 0 121 121" fill="none" xmlns="http://www.w3.org/2000/svg">
<g filter="url(#filter0_d_261_6155)">
<circle cx="60.5" cy="58.5" r="54.5" fill="white"/>
</g>
<g filter="url(#filter1_d_261_6155)">
<path d="M48.4657 43.2116L26.6183 45.6336C25.8303 45.729 25.1336 46.2557 24.8723 47.0561C24.611 47.8565 24.8723 48.6901 25.4529 49.2167C31.9474 55.1431 41.7058 64.018 41.7058 64.018C41.6975 64.018 39.0267 76.9282 37.2517 85.5419C37.1671 85.9318 37.1976 86.3378 37.3397 86.7106C37.4818 87.0834 37.7291 87.4068 38.0517 87.6415C38.3743 87.8762 38.7582 88.0121 39.1566 88.0325C39.5551 88.0529 39.9508 87.957 40.2957 87.7565C47.9432 83.4102 59.3977 76.8743 59.3977 76.8743L78.4914 87.7606C79.1882 88.1422 80.0591 88.1339 80.7351 87.6404C81.0567 87.4057 81.304 87.0835 81.4474 86.7121C81.5908 86.3407 81.6242 85.9359 81.5438 85.546L77.1021 64.018L93.355 49.2292C93.6493 48.9614 93.8602 48.6145 93.9625 48.23C94.0647 47.8454 94.0539 47.4396 93.9313 47.061C93.8088 46.6825 93.5797 46.3473 93.2715 46.0956C92.9634 45.8439 92.5892 45.6864 92.1938 45.6419C83.4515 44.6631 70.3422 43.2116 70.3422 43.2116L61.2888 23.1808C61.1247 22.8185 60.8596 22.5112 60.5253 22.2957C60.191 22.0802 59.8017 21.9656 59.4039 21.9656C59.0062 21.9656 58.6169 22.0802 58.2826 22.2957C57.9483 22.5112 57.6832 22.8185 57.519 23.1808L48.4657 43.2116Z" fill="#FFF4EC"/>
</g>
<path d="M80.7597 45.5918C80.7597 47.0176 80.1933 48.385 79.1851 49.3932C78.1769 50.4014 76.8095 50.9678 75.3837 50.9678C73.9579 50.9678 72.5905 50.4014 71.5823 49.3932C70.5741 48.385 70.0077 47.0176 70.0077 45.5918C70.0077 44.166 70.5741 42.7986 71.5823 41.7904C72.5905 40.7822 73.9579 40.2158 75.3837 40.2158C76.8095 40.2158 78.1769 40.7822 79.1851 41.7904C80.1933 42.7986 80.7597 44.166 80.7597 45.5918ZM45.8157 50.9678C47.2415 50.9678 48.6089 50.4014 49.6171 49.3932C50.6253 48.385 51.1917 47.0176 51.1917 45.5918C51.1917 44.166 50.6253 42.7986 49.6171 41.7904C48.6089 40.7822 47.2415 40.2158 45.8157 40.2158C44.3899 40.2158 43.0225 40.7822 42.0143 41.7904C41.0061 42.7986 40.4397 44.166 40.4397 45.5918C40.4397 47.0176 41.0061 48.385 42.0143 49.3932C43.0225 50.4014 44.3899 50.9678 45.8157 50.9678ZM47.1597 57.0158C47.1597 55.7713 47.536 54.6181 48.1785 53.6558H42.4557C40.601 53.6558 39.0957 55.1611 39.0957 57.0158V67.0958C39.0956 68.2466 39.3418 69.3841 39.8177 70.4319C40.2937 71.4796 40.9883 72.4134 41.8551 73.1704C42.7218 73.9274 43.7406 74.4901 44.8428 74.8207C45.9451 75.1514 47.1054 75.2422 48.2457 75.0873C47.5265 73.4118 47.157 71.6071 47.1597 69.7838V57.0158ZM74.0397 69.7838C74.0397 71.6654 73.6526 73.461 72.9538 75.0873C74.0941 75.2422 75.2543 75.1514 76.3566 74.8207C77.4589 74.4901 78.4776 73.9274 79.3443 73.1704C80.2111 72.4134 80.9058 71.4796 81.3817 70.4319C81.8577 69.3841 82.1038 68.2466 82.1037 67.0958V57.0158C82.1037 55.1611 80.5984 53.6558 78.7437 53.6558H73.021C73.6661 54.6181 74.0397 55.7713 74.0397 57.0158V69.7838Z" fill="white"/>
<path d="M47.1589 54.2558H42.4557C40.9324 54.2558 39.6957 55.4925 39.6957 57.0158V67.0958V67.0959C39.6956 68.1611 39.9235 69.2139 40.364 70.1837C40.8045 71.1535 41.4475 72.0178 42.2498 72.7185C43.052 73.4191 43.995 73.94 45.0152 74.246C45.787 74.4775 46.5896 74.582 47.3916 74.5571C46.8395 73.0283 46.5573 71.4129 46.5597 69.7832V69.7838L47.1589 54.2558ZM47.1589 54.2558C46.7747 55.0963 46.5597 56.0303 46.5597 57.0158L46.5597 69.7829L47.1589 54.2558ZM73.808 74.5571C74.3464 73.0663 74.6397 71.4571 74.6397 69.7838V57.0158C74.6397 56.031 74.4264 55.0969 74.0417 54.2558H78.7437C80.2671 54.2558 81.5037 55.4925 81.5037 57.0158V67.0958V67.0959C81.5038 68.1611 81.276 69.2139 80.8354 70.1837C80.3949 71.1535 79.7519 72.0178 78.9496 72.7185C78.1474 73.4191 77.2045 73.94 76.1842 74.246C75.4125 74.4775 74.61 74.582 73.808 74.5571ZM80.1597 45.5918C80.1597 46.8585 79.6565 48.0733 78.7609 48.969C77.8652 49.8646 76.6504 50.3678 75.3837 50.3678C74.117 50.3678 72.9022 49.8646 72.0066 48.969C71.1109 48.0733 70.6077 46.8585 70.6077 45.5918C70.6077 44.3251 71.1109 43.1104 72.0066 42.2147C72.9022 41.319 74.117 40.8158 75.3837 40.8158C76.6504 40.8158 77.8652 41.319 78.7609 42.2147C79.6565 43.1104 80.1597 44.3251 80.1597 45.5918ZM49.1928 48.969C48.2972 49.8646 47.0824 50.3678 45.8157 50.3678C44.549 50.3678 43.3342 49.8646 42.4386 48.969C41.5429 48.0733 41.0397 46.8585 41.0397 45.5918C41.0397 44.3251 41.5429 43.1104 42.4386 42.2147C43.3342 41.319 44.549 40.8158 45.8157 40.8158C47.0824 40.8158 48.2972 41.319 49.1928 42.2147C50.0885 43.1104 50.5917 44.3251 50.5917 45.5918C50.5917 46.8585 50.0885 48.0733 49.1928 48.969Z" stroke="#CE7636" stroke-opacity="0.5" stroke-width="1.2"/>
<path d="M66.4078 43.0959C66.4078 44.6872 65.7756 46.2133 64.6504 47.3385C63.5252 48.4637 61.9991 49.0959 60.4078 49.0959C58.8165 49.0959 57.2903 48.4637 56.1651 47.3385C55.0399 46.2133 54.4078 44.6872 54.4078 43.0959C54.4078 41.5046 55.0399 39.9784 56.1651 38.8532C57.2903 37.728 58.8165 37.0959 60.4078 37.0959C61.9991 37.0959 63.5252 37.728 64.6504 38.8532C65.7756 39.9784 66.4078 41.5046 66.4078 43.0959ZM50.3758 55.8639C50.3758 54.4068 51.5587 53.2239 53.0158 53.2239H67.7998C69.2568 53.2239 70.4398 54.4068 70.4398 55.8639V68.6319C70.4398 71.2925 69.3828 73.8442 67.5015 75.7256C65.6201 77.6069 63.0684 78.6639 60.4078 78.6639C57.7471 78.6639 55.1954 77.6069 53.3141 75.7256C51.4327 73.8442 50.3758 71.2925 50.3758 68.6319V55.8639Z" fill="#E86F18" stroke="white" stroke-width="1.44"/>
<defs>
<filter id="filter0_d_261_6155" x="0" y="0" width="121" height="121" filterUnits="userSpaceOnUse" color-interpolation-filters="sRGB">
<feFlood flood-opacity="0" result="BackgroundImageFix"/>
<feColorMatrix in="SourceAlpha" type="matrix" values="0 0 0 0 0 0 0 0 0 0 0 0 0 0 0 0 0 0 127 0" result="hardAlpha"/>
<feOffset dy="2"/>
<feGaussianBlur stdDeviation="3"/>
<feComposite in2="hardAlpha" operator="out"/>
<feColorMatrix type="matrix" values="0 0 0 0 0 0 0 0 0 0 0 0 0 0 0 0 0 0 0.05 0"/>
<feBlend mode="normal" in2="BackgroundImageFix" result="effect1_dropShadow_261_6155"/>
<feBlend mode="normal" in="SourceGraphic" in2="effect1_dropShadow_261_6155" result="shape"/>
</filter>
<filter id="filter1_d_261_6155" x="17.5709" y="14.7656" width="83.661" height="80.4696" filterUnits="userSpaceOnUse" color-interpolation-filters="sRGB">
<feFlood flood-opacity="0" result="BackgroundImageFix"/>
<feColorMatrix in="SourceAlpha" type="matrix" values="0 0 0 0 0 0 0 0 0 0 0 0 0 0 0 0 0 0 127 0" result="hardAlpha"/>
<feOffset/>
<feGaussianBlur stdDeviation="3.6"/>
<feComposite in2="hardAlpha" operator="out"/>
<feColorMatrix type="matrix" values="0 0 0 0 0 0 0 0 0 0 0 0 0 0 0 0 0 0 0.05 0"/>
<feBlend mode="normal" in2="BackgroundImageFix" result="effect1_dropShadow_261_6155"/>
<feBlend mode="normal" in="SourceGraphic" in2="effect1_dropShadow_261_6155" result="shape"/>
</filter>
</defs>
</svg>
