<svg width="44" height="44" viewBox="0 0 44 44" fill="none" xmlns="http://www.w3.org/2000/svg">
<path d="M19.2488 6.87491C17.1892 6.87491 15.2835 7.52116 13.7161 8.62116C13.6144 7.04541 13.2542 5.67865 12.5915 4.46865C14.6847 3.31019 17.0439 2.71799 19.4361 2.75059C21.8283 2.78318 24.1705 3.43943 26.2314 4.6545C28.2923 5.86956 30.0005 7.60138 31.1872 9.67881C32.3739 11.7562 32.998 14.1074 32.9979 16.4999H39.1878C40.4636 16.4999 41.6872 17.0066 42.5896 17.9085C43.492 18.8104 43.9993 20.0338 44 21.3097V36.4347C44.0004 37.0672 43.8761 37.6935 43.6342 38.2779C43.3924 38.8623 43.0377 39.3932 42.5905 39.8404C42.1434 40.2877 41.6124 40.6423 41.0281 40.8842C40.4437 41.1261 39.8175 41.2504 39.1851 41.25H24.061C22.7847 41.25 21.5607 40.743 20.6583 39.8404C19.7558 38.9379 19.2488 37.7138 19.2488 36.4375V30.25C17.336 30.2524 15.4438 29.8543 13.6941 29.0812C13.7299 28.1462 13.7491 27.1645 13.7491 26.125V25.9545C13.7491 25.4952 13.7491 24.9672 13.7409 24.3952C15.3558 25.5235 17.2788 26.1274 19.2488 26.125V21.3124C19.2488 18.6559 21.4047 16.4999 24.061 16.4999H28.8732C28.8732 13.9472 27.8592 11.4991 26.0543 9.69401C24.2494 7.88897 21.8013 6.87491 19.2488 6.87491ZM32.3682 20.6249C31.7018 22.7366 30.5364 24.6566 28.9707 26.2224C27.405 27.7882 25.4851 28.9537 23.3735 29.6202V36.4375C23.3735 36.817 23.6815 37.125 24.061 37.125H39.1851C39.3674 37.125 39.5422 37.0526 39.6712 36.9236C39.8001 36.7947 39.8725 36.6198 39.8725 36.4375V21.3124C39.8725 21.1301 39.8001 20.9552 39.6712 20.8263C39.5422 20.6974 39.3674 20.6249 39.1851 20.6249H32.3682ZM27.9465 20.6249H24.061C23.8787 20.6249 23.7038 20.6974 23.5749 20.8263C23.446 20.9552 23.3735 21.1301 23.3735 21.3124V25.1982C25.3777 24.2441 26.9925 22.6293 27.9465 20.6249ZM7.09731 0.343641C7.32555 0.543296 7.48139 0.812812 7.54058 1.11024C7.59976 1.40766 7.55896 1.71631 7.42454 1.98814C7.40126 2.0686 7.38923 2.15189 7.38879 2.23565C7.38879 2.4089 7.43279 2.7389 7.84801 3.1514C8.04875 3.35215 8.20274 3.49515 8.37048 3.6519C8.50797 3.7784 8.65371 3.9104 8.83795 4.0919C9.19543 4.4329 9.57215 4.8344 9.91038 5.33765C10.6116 6.39091 10.9993 7.70816 10.9993 9.62491C10.9993 11.9707 10.1304 13.9699 8.7747 15.1964L8.95069 15.3999C9.72064 16.3459 10.1689 17.5724 10.4493 18.7824C10.9993 21.1749 10.9993 24.0515 10.9993 26.0562V26.125C10.9993 33.7892 9.95713 38.137 8.81045 40.623C8.23299 41.8742 7.61977 42.6717 7.08906 43.1722C6.87329 43.3793 6.63537 43.5619 6.3796 43.7167C6.26249 43.7873 6.14024 43.8489 6.01387 43.901C6.01387 43.901 5.70314 44 5.49966 44C5.29617 44 4.98544 43.901 4.98544 43.901C4.8577 43.8519 4.73519 43.7902 4.61971 43.7167C4.36394 43.5619 4.12602 43.3793 3.91026 43.1722C3.37954 42.669 2.76633 41.8742 2.18886 40.623C1.04218 38.137 0 33.7892 0 26.125V26.0562C0 24.0487 1.22927e-07 21.1749 0.549966 18.7824C0.830448 17.5724 1.27867 16.3459 2.04862 15.3999C2.10362 15.3312 2.16411 15.2624 2.22461 15.1964C0.868946 13.9699 0 11.9707 0 9.62491C0 8.72841 0.239235 7.65866 0.569215 6.67141C0.899194 5.6814 1.36116 4.6584 1.89463 3.8334C2.52984 2.7609 3.42354 1.86164 4.11649 1.25664C4.4964 0.922507 4.89288 0.607692 5.30442 0.313391L5.42541 0.230891C5.67756 0.062801 5.97817 -0.017273 6.28052 0.00311683C6.58287 0.0235067 6.87001 0.143218 7.09731 0.343641Z" fill="black"/>
</svg>
