<svg width="122" height="121" viewBox="0 0 122 121" fill="none" xmlns="http://www.w3.org/2000/svg">
<g filter="url(#filter0_d_112_5436)">
<circle cx="61" cy="58.5" r="54.5" fill="#FBF9F7"/>
</g>
<rect x="23" y="35.5" width="77" height="46" rx="5.5" fill="#FDFBF5" stroke="#E86F18"/>
<path d="M62.5 48H91.5" stroke="#E6B996" stroke-linecap="round"/>
<path d="M62.5 61H91.5" stroke="#E6B996" stroke-linecap="round"/>
<path d="M62.5 55H91.5" stroke="#E6B996" stroke-linecap="round"/>
<path d="M62.5 68H91.5" stroke="#E6B996" stroke-linecap="round"/>
<circle cx="43" cy="57.5" r="12" fill="#E86F18" stroke="white"/>
<path d="M42.7501 64.2156C41.5621 64.2156 40.5241 63.9456 39.6361 63.4056C38.7481 62.8656 38.0581 62.1096 37.5661 61.1376C37.0741 60.1656 36.8281 59.0316 36.8281 57.7356C36.8281 56.4516 37.0801 55.3176 37.5841 54.3336C38.0881 53.3496 38.8021 52.5816 39.7261 52.0296C40.6621 51.4656 41.7661 51.1836 43.0381 51.1836C44.4781 51.1836 45.6781 51.5316 46.6381 52.2276C47.5981 52.9236 48.2221 53.8836 48.5101 55.1076H46.3501C46.1581 54.4356 45.7801 53.9076 45.2161 53.5236C44.6521 53.1396 43.9261 52.9476 43.0381 52.9476C41.7181 52.9476 40.6801 53.3736 39.9241 54.2256C39.1681 55.0776 38.7901 56.2536 38.7901 57.7536C38.7901 59.2536 39.1621 60.4236 39.9061 61.2636C40.6501 62.1036 41.6401 62.5236 42.8761 62.5236C44.1241 62.5236 45.0601 62.1696 45.6841 61.4616C46.3201 60.7536 46.6921 59.8116 46.8001 58.6356H43.3801V57.1596H48.7261V63.9996H46.9801L46.8181 62.1456C46.3981 62.8056 45.8701 63.3156 45.2341 63.6756C44.5981 64.0356 43.7701 64.2156 42.7501 64.2156Z" fill="white"/>
<defs>
<filter id="filter0_d_112_5436" x="0.5" y="0" width="121" height="121" filterUnits="userSpaceOnUse" color-interpolation-filters="sRGB">
<feFlood flood-opacity="0" result="BackgroundImageFix"/>
<feColorMatrix in="SourceAlpha" type="matrix" values="0 0 0 0 0 0 0 0 0 0 0 0 0 0 0 0 0 0 127 0" result="hardAlpha"/>
<feOffset dy="2"/>
<feGaussianBlur stdDeviation="3"/>
<feComposite in2="hardAlpha" operator="out"/>
<feColorMatrix type="matrix" values="0 0 0 0 0 0 0 0 0 0 0 0 0 0 0 0 0 0 0.05 0"/>
<feBlend mode="normal" in2="BackgroundImageFix" result="effect1_dropShadow_112_5436"/>
<feBlend mode="normal" in="SourceGraphic" in2="effect1_dropShadow_112_5436" result="shape"/>
</filter>
</defs>
</svg>
