<svg width="33" height="34" viewBox="0 0 33 34" fill="none" xmlns="http://www.w3.org/2000/svg">
<path d="M31.666 17C31.666 25.2843 24.9503 32 16.666 32M31.666 17C31.666 8.71573 24.9503 2 16.666 2M31.666 17H1.66602M16.666 32C8.38174 32 1.66602 25.2843 1.66602 17M16.666 32C20.4179 27.8925 22.5501 22.5619 22.666 17C22.5501 11.4381 20.4179 6.10753 16.666 2M16.666 32C12.9141 27.8925 10.7819 22.5619 10.666 17C10.7819 11.4381 12.9141 6.10753 16.666 2M1.66602 17C1.66602 8.71573 8.38174 2 16.666 2" stroke="#EF5A3C" stroke-width="2.5" stroke-linecap="round" stroke-linejoin="round"/>
</svg>
