<svg width="208" height="257" viewBox="0 0 208 257" fill="none" xmlns="http://www.w3.org/2000/svg">
<path d="M170.972 19.7932L11.9961 17.0518L9.25468 176.028L168.231 178.77L170.972 19.7932Z" fill="white"/>
<path d="M64.613 18.8136C65.5932 22.9056 68.7066 68.6398 68.7066 68.6398C68.7066 68.6398 50.7607 26.4586 49.7805 22.3666C49.3086 20.3964 49.6373 18.3197 50.6944 16.5935C51.7516 14.8672 53.4504 13.6327 55.4173 13.1615C57.3842 12.6904 59.458 13.0212 61.1826 14.0811C62.9071 15.1411 64.141 16.8434 64.613 18.8136Z" fill="#E86F18"/>
<path d="M72.545 117.401C71.5648 113.309 68.4514 67.5746 68.4514 67.5746C68.4514 67.5746 86.3972 109.756 87.3774 113.848C87.8493 115.818 87.5206 117.895 86.4635 119.621C85.4064 121.347 83.7075 122.582 81.7406 123.053C79.7737 123.524 77.6999 123.193 75.9754 122.133C74.2508 121.073 73.0169 119.371 72.545 117.401Z" fill="#E86F18"/>
<path d="M117.872 64.1412C113.78 65.1214 68.0463 68.2348 68.0463 68.2348C68.0463 68.2348 110.228 50.289 114.32 49.3088C116.29 48.8369 118.366 49.1656 120.093 50.2227C121.819 51.2798 123.053 52.9787 123.525 54.9456C123.996 56.9125 123.665 58.9863 122.605 60.7108C121.545 62.4354 119.843 63.6693 117.872 64.1412Z" fill="#E86F18"/>
<path d="M19.2853 72.0731C23.3774 71.0929 69.1116 67.9795 69.1116 67.9795C69.1116 67.9795 26.9303 85.9254 22.8383 86.9056C20.8681 87.3775 18.7915 87.0487 17.0652 85.9916C15.3389 84.9345 14.1044 83.2357 13.6333 81.2688C13.1621 79.3019 13.4929 77.228 14.5529 75.5035C15.6129 73.779 17.3152 72.545 19.2853 72.0731Z" fill="#E86F18"/>
<path d="M100.709 30.452C98.4864 34.0441 68.2986 68.5643 68.2986 68.5643C68.2986 68.5643 85.463 26.0719 87.6655 22.4679C88.1915 21.6125 88.8809 20.8687 89.6946 20.2791C90.5082 19.6895 91.43 19.2655 92.4075 19.0313C93.385 18.7972 94.399 18.7575 95.3914 18.9145C96.3839 19.0715 97.3356 19.4221 98.192 19.9464C99.0484 20.4706 99.7928 21.1582 100.383 21.9699C100.973 22.7816 101.397 23.7014 101.63 24.677C101.864 25.6525 101.903 26.6646 101.745 27.6555C101.587 28.6464 101.234 29.5967 100.709 30.452Z" fill="#E86F18"/>
<path d="M36.5407 105.801C38.7557 102.204 68.8594 67.65 68.8594 67.65C68.8594 67.65 51.7634 110.202 49.5679 113.81C48.5091 115.54 46.8075 116.777 44.8373 117.249C42.8671 117.721 40.7898 117.389 39.0622 116.327C37.3347 115.265 36.0985 113.559 35.6257 111.585C35.1528 109.611 35.482 107.53 36.5407 105.801Z" fill="#E86F18"/>
<path d="M106.291 100.223C102.693 98.0025 68.1218 67.8269 68.1218 67.8269C68.1218 67.8269 110.686 84.9741 114.296 87.1753C116.026 88.2368 117.264 89.9422 117.737 91.9163C118.21 93.8904 117.879 95.9715 116.817 97.7018C115.756 99.432 114.05 100.67 112.076 101.143C110.102 101.615 108.021 101.285 106.291 100.223Z" fill="#E86F18"/>
<path d="M30.9424 36.0553C34.5331 38.2717 69.036 68.3876 69.036 68.3876C69.036 68.3876 26.556 51.2744 22.9533 49.0775C22.0982 48.5529 21.3549 47.8651 20.7656 47.0532C20.1764 46.2414 19.7529 45.3214 19.5192 44.3459C19.2855 43.3703 19.2463 42.3583 19.4037 41.3676C19.5611 40.3769 19.9122 39.4269 20.4367 38.5718C20.9613 37.7168 21.6492 36.9734 22.461 36.3842C23.2729 35.795 24.1929 35.3715 25.1684 35.1378C26.144 34.9041 27.1559 34.8649 28.1466 35.0223C29.1374 35.1797 30.0874 35.5307 30.9424 36.0553Z" fill="#E86F18"/>
<path d="M150.228 85.3599C149.455 85.0696 148.683 84.7793 147.888 84.5198L55.5018 214.948C56.138 215.4 56.8061 215.869 57.4691 216.314L150.228 85.3599Z" fill="#F6DAC3"/>
<path d="M119.783 78.4391C118.792 78.4577 117.8 78.4763 116.787 78.5258L36.4126 191.969C36.8299 192.73 37.2741 193.484 37.7233 194.261L119.783 78.4391Z" fill="#F6DAC3"/>
<path d="M140.88 81.9037C140.042 81.7061 139.204 81.5084 138.37 81.3344L48.2995 208.464C48.87 209.008 49.4674 209.546 50.0648 210.083L140.88 81.9037Z" fill="#F6DAC3"/>
<path d="M130.769 79.5517C129.865 79.4467 128.961 79.3418 128.035 79.2677L41.8824 200.867C42.3873 201.504 42.924 202.158 43.4557 202.788L130.769 79.5517Z" fill="#F6DAC3"/>
<path d="M107.724 78.8162C106.618 78.9657 105.522 79.1624 104.421 79.3355L32.0404 181.527C32.3483 182.442 32.683 183.351 33.0446 184.251L107.724 78.8162Z" fill="#F6DAC3"/>
<path d="M157.79 89.2449C157.439 89.0652 157.061 88.8928 156.71 88.7131L63.4214 220.384C63.7723 220.563 64.1283 220.767 64.4792 220.946C64.8301 221.126 65.2079 221.298 65.5588 221.478L158.847 89.8076C158.496 89.6279 158.141 89.4246 157.79 89.2449Z" fill="#F6DAC3"/>
<path d="M94.2865 81.1713C93.0274 81.537 91.7734 81.9264 90.5243 82.3393L29.2367 168.843C29.3695 170.005 29.551 171.13 29.7594 172.247L94.2865 81.1713Z" fill="#F6DAC3"/>
<path d="M28.7298 157.042L78.5698 86.6964C76.9993 87.471 75.4607 88.262 73.9371 89.1238L29.0658 152.457C28.904 153.974 28.7791 155.531 28.7298 157.042Z" fill="#F6DAC3"/>
<path d="M193.064 141.352C192.909 140.221 192.728 139.096 192.519 137.979L128.014 229.024C129.273 228.658 130.527 228.269 131.776 227.856L193.064 141.352Z" fill="#F6DAC3"/>
<path d="M190.236 128.699C189.928 127.783 189.593 126.875 189.231 125.974L114.552 231.409C115.658 231.26 116.754 231.063 117.855 230.89L190.236 128.699Z" fill="#F6DAC3"/>
<path d="M56.967 100.555C51.8473 105.112 47.1905 110.242 43.163 115.927C39.1355 121.611 35.9781 127.51 33.6339 133.488L56.967 100.555Z" fill="#F6DAC3"/>
<path d="M193.21 157.768C193.367 156.227 193.497 154.694 193.568 153.152L143.702 223.504C145.273 222.729 146.811 221.938 148.335 221.076L193.21 157.768Z" fill="#F6DAC3"/>
<path d="M165.328 209.638C170.447 205.081 175.104 199.95 179.132 194.265C183.159 188.581 186.317 182.682 188.661 176.704L165.328 209.638Z" fill="#F6DAC3"/>
<path d="M173.974 101.739C173.404 101.194 172.806 100.656 172.209 100.119L81.3936 228.298C82.2318 228.496 83.07 228.694 83.9032 228.868L173.974 101.739Z" fill="#F6DAC3"/>
<path d="M166.802 95.2712C166.166 94.8191 165.498 94.3507 164.835 93.9059L72.0496 224.866C72.8221 225.156 73.5946 225.447 74.389 225.706L166.802 95.2712Z" fill="#F6DAC3"/>
<path d="M185.881 118.222C185.463 117.461 185.019 116.707 184.57 115.93L102.488 231.782C103.48 231.764 104.471 231.745 105.484 231.696L185.881 118.222Z" fill="#F6DAC3"/>
<path d="M180.389 109.329C179.884 108.691 179.347 108.038 178.815 107.408L91.5024 230.644C92.4062 230.749 93.3101 230.854 94.2358 230.928L180.389 109.329Z" fill="#F6DAC3"/>
</svg>
