<svg width="75" height="90" viewBox="0 0 75 90" fill="none" xmlns="http://www.w3.org/2000/svg">
<path d="M61.3799 7.12558L4.14844 6.13867L3.16153 63.3701L60.393 64.3571L61.3799 7.12558Z" fill="white"/>
<path d="M23.0906 6.77267C23.4435 8.24579 24.5643 24.7101 24.5643 24.7101C24.5643 24.7101 18.1038 9.52485 17.7509 8.05173C17.5811 7.34246 17.6994 6.59487 18.08 5.97341C18.4605 5.35195 19.0721 4.90752 19.7802 4.73791C20.4883 4.56829 21.2349 4.68738 21.8557 5.06897C22.4765 5.45056 22.9207 6.0634 23.0906 6.77267V6.77267Z" fill="#E86F18"/>
<path d="M25.9463 42.2642C25.5934 40.7911 24.4726 24.3268 24.4726 24.3268C24.4726 24.3268 30.9331 39.512 31.2859 40.9851C31.4558 41.6944 31.3375 42.442 30.9569 43.0634C30.5764 43.6849 29.9648 44.1293 29.2567 44.2989C28.5486 44.4686 27.802 44.3495 27.1812 43.9679C26.5604 43.5863 26.1162 42.9735 25.9463 42.2642V42.2642Z" fill="#E86F18"/>
<path d="M42.264 23.0907C40.7909 23.4436 24.3265 24.5644 24.3265 24.5644C24.3265 24.5644 39.5118 18.1039 40.9849 17.751C41.6942 17.5811 42.4418 17.6995 43.0632 18.08C43.6847 18.4606 44.1291 19.0722 44.2987 19.7802C44.4683 20.4883 44.3493 21.2349 43.9677 21.8557C43.5861 22.4766 42.9733 22.9208 42.264 23.0907V23.0907Z" fill="#E86F18"/>
<path d="M6.77291 25.9458C8.24603 25.593 24.7104 24.4721 24.7104 24.4721C24.7104 24.4721 9.5251 30.9326 8.05197 31.2855C7.34271 31.4554 6.59512 31.3371 5.97366 30.9565C5.3522 30.5759 4.90778 29.9644 4.73817 29.2563C4.56855 28.5482 4.68763 27.8016 5.06922 27.1808C5.45081 26.56 6.06364 26.1157 6.77291 25.9458V25.9458Z" fill="#E86F18"/>
<path d="M36.0854 10.9623C35.2854 12.2554 24.4178 24.6827 24.4178 24.6827C24.4178 24.6827 30.597 9.38543 31.3899 8.08797C31.5792 7.78004 31.8274 7.51229 32.1204 7.30002C32.4133 7.08774 32.7451 6.93511 33.097 6.85082C33.4489 6.76653 33.8139 6.75223 34.1712 6.80875C34.5285 6.86527 34.8711 6.9915 35.1794 7.18023C35.4877 7.36896 35.7557 7.61649 35.9681 7.9087C36.1805 8.2009 36.3331 8.53206 36.4172 8.88325C36.5014 9.23445 36.5153 9.5988 36.4584 9.95552C36.4015 10.3122 36.2747 10.6543 36.0854 10.9623V10.9623Z" fill="#E86F18"/>
<path d="M12.9845 38.0879C13.7819 36.7931 24.6192 24.3537 24.6192 24.3537C24.6192 24.3537 18.4646 39.6724 17.6743 40.9715C17.2931 41.5941 16.6805 42.0394 15.9712 42.2093C15.262 42.3792 14.5141 42.2598 13.8922 41.8774C13.2703 41.495 12.8253 40.8809 12.655 40.1703C12.4848 39.4596 12.6033 38.7105 12.9845 38.0879V38.0879Z" fill="#E86F18"/>
<path d="M38.0949 36.0802C36.7997 35.2807 24.354 24.4175 24.354 24.4175C24.354 24.4175 39.6771 30.5905 40.9767 31.3829C41.5996 31.765 42.0451 32.379 42.2154 33.0897C42.3856 33.8003 42.2666 34.5495 41.8844 35.1724C41.5023 35.7953 40.8883 36.2409 40.1776 36.4111C39.4669 36.5814 38.7178 36.4623 38.0949 36.0802V36.0802Z" fill="#E86F18"/>
<path d="M10.9693 12.9798C12.2619 13.7776 24.683 24.6194 24.683 24.6194C24.683 24.6194 9.39014 18.4586 8.09318 17.6677C7.78536 17.4789 7.51775 17.2313 7.30563 16.939C7.09351 16.6467 6.94104 16.3155 6.85691 15.9643C6.77279 15.6132 6.75866 15.2488 6.81534 14.8922C6.87201 14.5355 6.99838 14.1935 7.18723 13.8857C7.37608 13.5779 7.62371 13.3103 7.91598 13.0982C8.20824 12.886 8.53944 12.7336 8.89064 12.6494C9.24183 12.5653 9.60614 12.5512 9.96279 12.6079C10.3194 12.6645 10.6615 12.7909 10.9693 12.9798V12.9798Z" fill="#E86F18"/>
<path d="M52.5358 30.7518C52.2593 30.6302 51.9828 30.5086 51.6991 30.3982L21.1827 77.3525C21.4137 77.5319 21.6562 77.7179 21.8965 77.8951L52.5358 30.7518Z" fill="#F6DAC3"/>
<path d="M41.7346 28.2488C41.3859 28.2384 41.0371 28.2281 40.6811 28.2288L14.1319 69.0683C14.2906 69.359 14.4586 69.6474 14.6288 69.9446L41.7346 28.2488Z" fill="#F6DAC3"/>
<path d="M49.1997 29.5043C48.9015 29.4161 48.6034 29.3279 48.3073 29.2486L18.5552 75.015C18.7645 75.2278 18.9831 75.4384 19.2018 75.6489L49.1997 29.5043Z" fill="#F6DAC3"/>
<path d="M45.6114 28.6543C45.2915 28.5994 44.9717 28.5446 44.6446 28.5009L16.1867 72.2765C16.3742 72.5227 16.5733 72.7755 16.7703 73.0194L45.6114 28.6543Z" fill="#F6DAC3"/>
<path d="M37.5024 28.3795C37.1154 28.4158 36.7326 28.47 36.3477 28.5152L12.4396 65.3041C12.5622 65.6504 12.694 65.9944 12.8353 66.3361L37.5024 28.3795Z" fill="#F6DAC3"/>
<path d="M55.2499 32.1281C55.1236 32.0551 54.9879 31.9843 54.8616 31.9113L24.0466 79.3127C24.173 79.3857 24.3014 79.4676 24.4278 79.5406C24.5541 79.6136 24.6898 79.6844 24.8161 79.7575L55.6311 32.3561C55.5047 32.283 55.3763 32.2011 55.2499 32.1281Z" fill="#F6DAC3"/>
<path d="M32.816 29.2218C32.3783 29.336 31.9428 29.4591 31.5094 29.5911L11.2649 60.7323C11.3296 61.1675 11.4109 61.5894 11.5015 62.009L32.816 29.2218Z" fill="#F6DAC3"/>
<path d="M10.9125 56.5356L27.3756 31.2111C26.8346 31.4722 26.305 31.7399 25.7819 32.0342L10.96 54.834C10.9265 55.3961 10.9065 55.9737 10.9125 56.5356Z" fill="#F6DAC3"/>
<path d="M68.424 50.9378C68.3521 50.5137 68.2708 50.0919 68.1802 49.6723L46.8729 82.4484C47.3106 82.3342 47.7461 82.2111 48.1795 82.0791L68.424 50.9378Z" fill="#F6DAC3"/>
<path d="M67.2409 46.3768C67.1184 46.0306 66.9865 45.6866 66.8453 45.3448L42.1781 83.3015C42.5652 83.2651 42.948 83.211 43.3329 83.1657L67.2409 46.3768Z" fill="#F6DAC3"/>
<path d="M19.9925 36.2C18.2602 37.8074 16.6997 39.6367 15.3694 41.6831C14.039 43.7295 13.0183 45.8708 12.2852 48.0559L19.9925 36.2Z" fill="#F6DAC3"/>
<path d="M68.7203 56.8474C68.7517 56.2765 68.7738 55.7078 68.7751 55.1347L52.3026 80.4614C52.8437 80.2004 53.3732 79.9327 53.8963 79.6383L68.7203 56.8474Z" fill="#F6DAC3"/>
<path d="M59.6949 75.4694C61.4272 73.862 62.9876 72.0327 64.318 69.9863C65.6483 67.9399 66.669 65.7986 67.4022 63.6135L59.6949 75.4694Z" fill="#F6DAC3"/>
<path d="M61.1246 36.6578C60.9153 36.445 60.6967 36.2345 60.478 36.0239L30.4801 82.1685C30.7783 82.2567 31.0764 82.345 31.3725 82.4243L61.1246 36.6578Z" fill="#F6DAC3"/>
<path d="M58.5076 34.3268C58.2766 34.1473 58.0342 33.9613 57.7938 33.7841L27.1452 80.9297C27.4216 81.0513 27.6981 81.1728 27.9818 81.2833L58.5076 34.3268Z" fill="#F6DAC3"/>
<path d="M65.5543 42.6002C65.3956 42.3096 65.2276 42.0212 65.0574 41.7239L37.9443 83.4309C38.2931 83.4413 38.6419 83.4516 38.9979 83.4509L65.5543 42.6002Z" fill="#F6DAC3"/>
<path d="M63.4917 39.394C63.3041 39.1478 63.105 38.895 62.9081 38.6511L34.067 83.0162C34.3868 83.0711 34.7067 83.1259 35.0338 83.1696L63.4917 39.394Z" fill="#F6DAC3"/>
</svg>
