<svg width="38" height="34" viewBox="0 0 38 34" fill="none" xmlns="http://www.w3.org/2000/svg">
<path d="M0.823935 6.22681C2.14693 3.23521 5.14123 0.799805 8.74033 0.799805H29.8003C33.6802 0.799805 37.9003 4.002 37.9003 8.8998C37.9003 11.751 36.3073 14.1675 35.1895 15.3987C35.1706 16.8783 35.23 18.8385 35.3029 20.9364L35.3245 21.5709C35.3974 23.7093 35.473 25.9314 35.473 27.7998C35.473 29.5278 35.2948 31.1451 34.1392 32.1603C33.5668 32.6652 32.8702 32.9109 32.1682 33.0405C31.3851 33.163 30.5928 33.2163 29.8003 33.1998H8.20033C5.65423 33.1998 4.00723 32.4357 3.16214 31.0263C2.49254 29.9112 2.51684 28.6098 2.52764 27.9834L2.53033 27.7998V15.4338C-0.245265 12.7338 -0.458565 9.12931 0.823935 6.22681ZM8.74033 3.4998C6.39943 3.4998 4.26644 5.1171 3.29444 7.3176C2.34944 9.4587 2.57893 11.9616 4.75513 13.8111C4.90416 13.9379 5.02384 14.0956 5.10589 14.2732C5.18794 14.4508 5.23041 14.6441 5.23033 14.8398V27.9807C5.23033 28.7124 5.23033 29.2227 5.47603 29.6358C5.64343 29.9139 6.15913 30.4998 8.20303 30.4998H24.403C25.2454 30.4998 25.8178 30.4647 26.2255 30.3864C26.617 30.3108 26.7331 30.2163 26.7655 30.1812C26.8006 30.1488 26.8978 30.0381 26.9788 29.6466C27.0598 29.2416 27.1003 28.6611 27.1003 27.7998C27.1003 26.4849 27.0895 25.0296 27.0814 23.5608C27.0453 20.8213 27.0516 18.0813 27.1003 15.342C27.1102 14.9965 27.2523 14.6679 27.4972 14.424C27.7132 14.208 27.9184 14.0136 28.1182 13.8246C28.642 13.3278 29.101 12.8931 29.5195 12.2802C30.0325 11.5242 30.4537 10.5063 30.4537 8.8998C30.4537 7.1286 29.6491 5.8164 28.4881 4.9092C27.3122 4.01262 25.8789 3.51844 24.4003 3.4998H8.74033Z" fill="#E86F18"/>
<path d="M11.2679 24.9896L8.29716 22.0277C8.2619 21.9924 8.23698 21.9542 8.22241 21.9131C8.2076 21.872 8.2002 21.8279 8.2002 21.7809C8.2002 21.7339 8.2076 21.6898 8.22241 21.6487C8.23698 21.6075 8.2619 21.5693 8.29716 21.5341L11.2679 18.5634C11.3501 18.4811 11.453 18.4399 11.5764 18.4399C11.6998 18.4399 11.8056 18.484 11.8937 18.5722C11.9819 18.6603 12.026 18.7632 12.026 18.8807C12.026 18.9982 11.9819 19.1011 11.8937 19.1892L9.30209 21.7809L11.8937 24.3725C11.976 24.4548 12.0172 24.5561 12.0172 24.6765C12.0172 24.7971 11.9731 24.9014 11.8849 24.9896C11.7968 25.0777 11.6939 25.1218 11.5764 25.1218C11.4589 25.1218 11.356 25.0777 11.2679 24.9896Z" fill="#E86F18"/>
<path d="M21.7712 18.61L24.7419 21.5719C24.7772 21.6072 24.8021 21.6454 24.8167 21.6865C24.8315 21.7276 24.8389 21.7717 24.8389 21.8187C24.8389 21.8657 24.8315 21.9098 24.8167 21.951C24.8021 21.9921 24.7772 22.0303 24.7419 22.0656L21.7712 25.0363C21.6889 25.1185 21.5861 25.1597 21.4627 25.1597C21.3393 25.1597 21.2335 25.1156 21.1453 25.0274C21.0572 24.9393 21.0131 24.8364 21.0131 24.7189C21.0131 24.6014 21.0572 24.4985 21.1453 24.4104L23.737 21.8187L21.1453 19.2271C21.063 19.1448 21.0219 19.0435 21.0219 18.9231C21.0219 18.8025 21.066 18.6982 21.1541 18.61C21.2423 18.5219 21.3451 18.4778 21.4627 18.4778C21.5802 18.4778 21.683 18.5219 21.7712 18.61Z" fill="#E86F18"/>
<path d="M14.6807 11.7197C15.0007 12.1997 15.3207 12.6797 16.6007 12.6797C17.9201 12.6797 18.2007 12.1997 18.5207 11.7197" stroke="#E86F18" stroke-width="0.96" stroke-linecap="round"/>
<ellipse cx="21.4804" cy="10.2264" rx="1.03998" ry="1.03992" fill="#E86F18"/>
<ellipse cx="11.8798" cy="10.2264" rx="1.03998" ry="1.03992" fill="#E86F18"/>
<line x1="18.6714" y1="17.9323" x2="14.1733" y2="26.9286" stroke="#E86F18" stroke-width="0.675" stroke-linecap="round"/>
</svg>
