<svg width="38" height="33" viewBox="0 0 38 33" fill="none" xmlns="http://www.w3.org/2000/svg">
<path d="M0.755576 5.427C2.07858 2.4354 5.07288 0 8.67197 0H29.732C33.6119 0 37.832 3.2022 37.832 8.1C37.832 10.9512 36.239 13.3677 35.1212 14.5989C35.1023 16.0785 35.1617 18.0387 35.2346 20.1366L35.2562 20.7711C35.3291 22.9095 35.4047 25.1316 35.4047 27C35.4047 28.728 35.2265 30.3453 34.0709 31.3605C33.4985 31.8654 32.8019 32.1111 32.0999 32.2407C31.3168 32.3632 30.5244 32.4165 29.732 32.4H8.13198C5.58588 32.4 3.93888 31.6359 3.09378 30.2265C2.42418 29.1114 2.44848 27.81 2.45928 27.1836L2.46198 27V14.634C-0.313624 11.934 -0.526924 8.3295 0.755576 5.427ZM8.67197 2.7C6.33108 2.7 4.19808 4.3173 3.22608 6.5178C2.28108 8.6589 2.51058 11.1618 4.68678 13.0113C4.8358 13.1381 4.95548 13.2958 5.03753 13.4734C5.11958 13.651 5.16205 13.8443 5.16198 14.04V27.1809C5.16198 27.9126 5.16198 28.4229 5.40768 28.836C5.57508 29.1141 6.09078 29.7 8.13468 29.7H24.3347C25.1771 29.7 25.7495 29.6649 26.1572 29.5866C26.5487 29.511 26.6648 29.4165 26.6972 29.3814C26.7323 29.349 26.8295 29.2383 26.9105 28.8468C26.9915 28.4418 27.032 27.8613 27.032 27C27.032 25.6851 27.0212 24.2298 27.0131 22.761C26.977 20.0215 26.9833 17.2815 27.032 14.5422C27.0419 14.1967 27.1839 13.8681 27.4289 13.6242C27.6449 13.4082 27.8501 13.2138 28.0499 13.0248C28.5737 12.528 29.0327 12.0933 29.4512 11.4804C29.9642 10.7244 30.3854 9.7065 30.3854 8.1C30.3854 6.3288 29.5808 5.0166 28.4198 4.1094C27.2439 3.21282 25.8106 2.71864 24.332 2.7H8.67197Z" fill="#3C1A00"/>
<path d="M11.1995 24.1898L8.2288 21.2279C8.19354 21.1926 8.16862 21.1544 8.15405 21.1133C8.13924 21.0722 8.13184 21.0281 8.13184 20.9811C8.13184 20.9341 8.13924 20.89 8.15405 20.8489C8.16862 20.8077 8.19354 20.7695 8.2288 20.7343L11.1995 17.7635C11.2818 17.6813 11.3846 17.6401 11.508 17.6401C11.6314 17.6401 11.7372 17.6842 11.8254 17.7724C11.9135 17.8605 11.9576 17.9634 11.9576 18.0809C11.9576 18.1984 11.9135 18.3013 11.8254 18.3894L9.23373 20.9811L11.8254 23.5727C11.9077 23.655 11.9488 23.7563 11.9488 23.8767C11.9488 23.9973 11.9047 24.1016 11.8166 24.1898C11.7284 24.2779 11.6256 24.322 11.508 24.322C11.3905 24.322 11.2877 24.2779 11.1995 24.1898Z" fill="#3C1A00"/>
<path d="M21.7028 17.8102L24.6735 20.7721C24.7088 20.8074 24.7337 20.8456 24.7483 20.8867C24.7631 20.9278 24.7705 20.9719 24.7705 21.0189C24.7705 21.0659 24.7631 21.11 24.7483 21.1511C24.7337 21.1923 24.7088 21.2305 24.6735 21.2657L21.7028 24.2365C21.6206 24.3187 21.5177 24.3599 21.3943 24.3599C21.2709 24.3599 21.1651 24.3158 21.077 24.2276C20.9888 24.1395 20.9447 24.0366 20.9447 23.9191C20.9447 23.8016 20.9888 23.6987 21.077 23.6106L23.6686 21.0189L21.077 18.4273C20.9947 18.345 20.9535 18.2437 20.9535 18.1233C20.9535 18.0027 20.9976 17.8984 21.0858 17.8102C21.1739 17.7221 21.2768 17.678 21.3943 17.678C21.5118 17.678 21.6147 17.7221 21.7028 17.8102Z" fill="#3C1A00"/>
<path d="M14.6123 10.9199C14.9323 11.3999 15.2523 11.8799 16.5323 11.8799C17.8517 11.8799 18.1323 11.3999 18.4523 10.9199" stroke="#3C1A00" stroke-width="0.96" stroke-linecap="round"/>
<ellipse cx="21.4121" cy="9.42664" rx="1.03998" ry="1.03992" fill="#3C1A00"/>
<ellipse cx="11.8115" cy="9.42664" rx="1.03998" ry="1.03992" fill="#3C1A00"/>
<line x1="18.6031" y1="17.1325" x2="14.105" y2="26.1288" stroke="#3C1A00" stroke-width="0.675" stroke-linecap="round"/>
</svg>
