<svg width="33" height="34" viewBox="0 0 33 34" fill="none" xmlns="http://www.w3.org/2000/svg">
<path d="M24.6654 12L15.6082 21.0572C15.2782 21.3872 15.1132 21.5522 14.9229 21.614C14.7555 21.6684 14.5752 21.6684 14.4079 21.614C14.2176 21.5522 14.0526 21.3872 13.7226 21.0572L10.6082 17.9428C10.2782 17.6128 10.1132 17.4478 9.92288 17.386C9.75551 17.3316 9.57522 17.3316 9.40785 17.386C9.21758 17.4478 9.05257 17.6128 8.72256 17.9428L1.33203 25.3333M24.6654 12H17.9987M24.6654 12V18.6667M9.33203 32H23.332C26.1323 32 27.5324 32 28.602 31.455C29.5428 30.9757 30.3077 30.2108 30.7871 29.27C31.332 28.2004 31.332 26.8003 31.332 24V10C31.332 7.19974 31.332 5.79961 30.7871 4.73005C30.3077 3.78924 29.5428 3.02433 28.602 2.54497C27.5324 2 26.1323 2 23.332 2H9.33203C6.53177 2 5.13164 2 4.06208 2.54497C3.12127 3.02433 2.35637 3.78924 1.877 4.73005C1.33203 5.79961 1.33203 7.19974 1.33203 10V24C1.33203 26.8003 1.33203 28.2004 1.877 29.27C2.35637 30.2108 3.12127 30.9757 4.06208 31.455C5.13164 32 6.53177 32 9.33203 32Z" stroke="#EA5436" stroke-width="2.5" stroke-linecap="round" stroke-linejoin="round"/>
</svg>
