<svg width="121" height="121" viewBox="0 0 121 121" fill="none" xmlns="http://www.w3.org/2000/svg">
<g filter="url(#filter0_d_261_6154)">
<circle cx="60.5" cy="58.5" r="54.5" fill="white"/>
</g>
<g filter="url(#filter1_d_261_6154)">
<g filter="url(#filter2_d_261_6154)">
<rect x="24" y="32" width="72" height="50" rx="2" fill="white"/>
<rect x="24.5" y="32.5" width="71" height="49" rx="1.5" stroke="#CE7636" stroke-opacity="0.4"/>
</g>
<path d="M25 34C25 33.4477 25.4477 33 26 33H94C94.5523 33 95 33.4477 95 34V43H25V34Z" fill="#FFEEE1"/>
<circle cx="31.4" cy="37.65" r="1.225" fill="#CE7636" fill-opacity="0.7"/>
<circle cx="36.2999" cy="37.65" r="1.225" fill="#CE7636" fill-opacity="0.5"/>
<circle cx="41.025" cy="37.65" r="1.225" fill="#CE7636" fill-opacity="0.4"/>
<g filter="url(#filter3_d_261_6154)">
<path d="M35.1445 62.541C34.851 61.8952 33.9473 61.8638 33.593 62.4441L33.5418 62.541L32.6372 64.5334C31.8472 66.2725 30.5336 67.7342 28.8719 68.723L28.5923 68.8836L26.9862 69.7672C26.8585 69.8372 26.7507 69.9373 26.6727 70.0585C26.5947 70.1796 26.5489 70.3179 26.5394 70.4609C26.53 70.6038 26.5573 70.7467 26.6188 70.8767C26.6803 71.0066 26.7741 71.1194 26.8915 71.2048L26.9853 71.2643L28.5923 72.148C30.2875 73.0812 31.6512 74.4987 32.5009 76.211L32.6372 76.4982L33.5418 78.4906C33.8353 79.1363 34.739 79.1678 35.0933 78.5875L35.1445 78.4906L36.0491 76.4982C36.8391 74.759 38.1527 73.2973 39.8145 72.3085L40.094 72.148L41.7002 71.2643C41.8278 71.1944 41.9356 71.0942 42.0136 70.9731C42.0917 70.8519 42.1375 70.7136 42.1469 70.5707C42.1563 70.4278 42.129 70.2848 42.0675 70.1549C42.006 70.0249 41.9122 69.9121 41.7948 69.8267L41.701 69.7672L40.094 68.8836C38.3988 67.9504 37.0351 66.5328 36.1854 64.8206L36.0491 64.5334L35.1445 62.541Z" fill="#E86F18"/>
<path d="M32.9868 64.6921L32.9868 64.6922C32.164 66.5037 30.7964 68.0247 29.0682 69.053L29.0682 69.053L29.0631 69.056L28.7836 69.2166L28.7836 69.2166L28.7774 69.22L27.1713 70.1037L27.1707 70.104C27.0985 70.1435 27.0385 70.1996 26.9955 70.2664L26.6727 70.0585L26.9955 70.2664C26.9526 70.3331 26.9277 70.4086 26.9226 70.4861C26.9175 70.5635 26.9323 70.6413 26.9659 70.7124C26.9982 70.7805 27.047 70.8409 27.109 70.888L27.1808 70.9336L28.7773 71.8115L28.7775 71.8116C30.5404 72.782 31.9599 74.257 32.8448 76.0403L32.8449 76.0403L32.8478 76.0463L32.9841 76.3335L32.9841 76.3335L32.9868 76.3394L33.8914 78.3317C33.8914 78.3318 33.8915 78.3318 33.8915 78.3318C34.0522 78.6853 34.5579 78.7122 34.7601 78.396L34.7996 78.3213L35.6995 76.3394L35.6995 76.3394C36.5223 74.5279 37.8899 73.0069 39.6181 71.9785L39.6181 71.9785L39.6232 71.9756L39.9027 71.815L39.9027 71.8149L39.9089 71.8115L41.5151 70.9279L41.5156 70.9276C41.5878 70.888 41.6478 70.8319 41.6908 70.7652C41.7338 70.6985 41.7586 70.6229 41.7637 70.5455C41.7688 70.468 41.7541 70.3903 41.7204 70.3191C41.6882 70.251 41.6393 70.1906 41.5773 70.1435L41.5055 70.0979L39.909 69.2201L39.9088 69.22C38.1459 68.2495 36.7264 66.7746 35.8415 64.9913L35.8414 64.9913L35.8385 64.9852L35.7022 64.698L35.7022 64.6981L35.6995 64.6921L34.7949 62.6998C34.6342 62.3463 34.1284 62.3193 33.9262 62.6356L33.8867 62.7102L32.9868 64.6921Z" stroke="white" stroke-width="0.767999"/>
</g>
<g filter="url(#filter4_d_261_6154)">
<path d="M86.4504 38.522C86.0102 37.5534 84.6545 37.5062 84.1232 38.3767L84.0464 38.522L82.6894 41.5106C81.5045 44.1194 79.534 46.3119 77.0414 47.7951L76.6221 48.0359L74.2129 49.3614C74.0213 49.4663 73.8597 49.6165 73.7427 49.7982C73.6256 49.9799 73.5569 50.1874 73.5428 50.4018C73.5287 50.6162 73.5696 50.8306 73.6619 51.0255C73.7541 51.2204 73.8947 51.3897 74.0709 51.5178L74.2116 51.607L76.6221 52.9325C79.1649 54.3323 81.2104 56.4586 82.4849 59.027L82.6894 59.4578L84.0464 62.4464C84.4865 63.415 85.8422 63.4621 86.3735 62.5917L86.4504 62.4464L87.8074 59.4578C88.9923 56.849 90.9627 54.6565 93.4553 53.1733L93.8747 52.9325L96.2839 51.607C96.4754 51.5021 96.6371 51.3519 96.7541 51.1702C96.8711 50.9884 96.9398 50.7809 96.9539 50.5666C96.9681 50.3522 96.9271 50.1378 96.8349 49.9429C96.7426 49.7479 96.602 49.5787 96.4258 49.4506L96.2852 49.3614L93.8747 48.0359C91.3318 46.6361 89.2863 44.5098 88.0118 41.9414L87.8074 41.5106L86.4504 38.522Z" fill="#E86F18"/>
<path d="M83.2139 41.7488L83.2138 41.7488C81.9797 44.466 79.9283 46.7476 77.336 48.2901L77.336 48.2901L77.3283 48.2945L76.909 48.5354L76.909 48.5355L76.8997 48.5406L74.4905 49.866L74.4896 49.8665C74.3814 49.9258 74.2914 50.0099 74.2269 50.1101C74.1625 50.2102 74.1252 50.3235 74.1176 50.4396C74.1099 50.5558 74.132 50.6725 74.1825 50.7791C74.2309 50.8813 74.3041 50.9719 74.3971 51.0426L74.5049 51.111L76.8996 52.4277L76.8999 52.4279C79.5442 53.8836 81.6735 56.096 83.0009 58.7709L83.001 58.7709L83.0053 58.78L83.2098 59.2108L83.2098 59.2107L83.2139 59.2196L84.5708 62.2081C84.5708 62.2081 84.5708 62.2082 84.5708 62.2083C84.8119 62.7384 85.5705 62.7788 85.8739 62.3044L85.9331 62.1925L87.2829 59.2196L87.2829 59.2196C88.5171 56.5024 90.5685 54.2208 93.1608 52.6783L93.1608 52.6783L93.1684 52.6739L93.5878 52.433L93.5877 52.4329L93.597 52.4278L96.0062 51.1023L96.0071 51.1019C96.1154 51.0425 96.2053 50.9584 96.2698 50.8583C96.3343 50.7582 96.3715 50.6449 96.3792 50.5287C96.3868 50.4126 96.3647 50.2959 96.3142 50.1892C96.2659 50.0871 96.1926 49.9965 96.0996 49.9258L95.9919 49.8574L93.5971 48.5407L93.5969 48.5405C90.9525 47.0848 88.8233 44.8724 87.4958 42.1974L87.4958 42.1975L87.4914 42.1884L87.287 41.7576L87.2869 41.7576L87.2829 41.7488L85.926 38.7603C85.926 38.7603 85.926 38.7602 85.9259 38.7602C85.9259 38.7602 85.9259 38.7602 85.9259 38.7601C85.6848 38.2299 84.9263 38.1896 84.6229 38.6639L84.5637 38.7759L83.2139 41.7488Z" stroke="white" stroke-width="1.152"/>
</g>
</g>
<defs>
<filter id="filter0_d_261_6154" x="0" y="0" width="121" height="121" filterUnits="userSpaceOnUse" color-interpolation-filters="sRGB">
<feFlood flood-opacity="0" result="BackgroundImageFix"/>
<feColorMatrix in="SourceAlpha" type="matrix" values="0 0 0 0 0 0 0 0 0 0 0 0 0 0 0 0 0 0 127 0" result="hardAlpha"/>
<feOffset dy="2"/>
<feGaussianBlur stdDeviation="3"/>
<feComposite in2="hardAlpha" operator="out"/>
<feColorMatrix type="matrix" values="0 0 0 0 0 0 0 0 0 0 0 0 0 0 0 0 0 0 0.05 0"/>
<feBlend mode="normal" in2="BackgroundImageFix" result="effect1_dropShadow_261_6154"/>
<feBlend mode="normal" in="SourceGraphic" in2="effect1_dropShadow_261_6154" result="shape"/>
</filter>
<filter id="filter1_d_261_6154" x="21.2" y="29.6" width="78.5567" height="55.9" filterUnits="userSpaceOnUse" color-interpolation-filters="sRGB">
<feFlood flood-opacity="0" result="BackgroundImageFix"/>
<feColorMatrix in="SourceAlpha" type="matrix" values="0 0 0 0 0 0 0 0 0 0 0 0 0 0 0 0 0 0 127 0" result="hardAlpha"/>
<feOffset dy="0.7"/>
<feGaussianBlur stdDeviation="1.4"/>
<feComposite in2="hardAlpha" operator="out"/>
<feColorMatrix type="matrix" values="0 0 0 0 0 0 0 0 0 0 0 0 0 0 0 0 0 0 0.05 0"/>
<feBlend mode="normal" in2="BackgroundImageFix" result="effect1_dropShadow_261_6154"/>
<feBlend mode="normal" in="SourceGraphic" in2="effect1_dropShadow_261_6154" result="shape"/>
</filter>
<filter id="filter2_d_261_6154" x="20" y="30" width="80" height="58" filterUnits="userSpaceOnUse" color-interpolation-filters="sRGB">
<feFlood flood-opacity="0" result="BackgroundImageFix"/>
<feColorMatrix in="SourceAlpha" type="matrix" values="0 0 0 0 0 0 0 0 0 0 0 0 0 0 0 0 0 0 127 0" result="hardAlpha"/>
<feOffset dy="2"/>
<feGaussianBlur stdDeviation="2"/>
<feComposite in2="hardAlpha" operator="out"/>
<feColorMatrix type="matrix" values="0 0 0 0 0 0 0 0 0 0 0 0 0 0 0 0 0 0 0.1 0"/>
<feBlend mode="normal" in2="BackgroundImageFix" result="effect1_dropShadow_261_6154"/>
<feBlend mode="normal" in="SourceGraphic" in2="effect1_dropShadow_261_6154" result="shape"/>
</filter>
<filter id="filter3_d_261_6154" x="24.5376" y="60.0315" width="19.6111" height="20.9685" filterUnits="userSpaceOnUse" color-interpolation-filters="sRGB">
<feFlood flood-opacity="0" result="BackgroundImageFix"/>
<feColorMatrix in="SourceAlpha" type="matrix" values="0 0 0 0 0 0 0 0 0 0 0 0 0 0 0 0 0 0 127 0" result="hardAlpha"/>
<feOffset/>
<feGaussianBlur stdDeviation="1"/>
<feComposite in2="hardAlpha" operator="out"/>
<feColorMatrix type="matrix" values="0 0 0 0 0 0 0 0 0 0 0 0 0 0 0 0 0 0 0.15 0"/>
<feBlend mode="normal" in2="BackgroundImageFix" result="effect1_dropShadow_261_6154"/>
<feBlend mode="normal" in="SourceGraphic" in2="effect1_dropShadow_261_6154" result="shape"/>
</filter>
<filter id="filter4_d_261_6154" x="70.54" y="34.7578" width="29.4166" height="31.4527" filterUnits="userSpaceOnUse" color-interpolation-filters="sRGB">
<feFlood flood-opacity="0" result="BackgroundImageFix"/>
<feColorMatrix in="SourceAlpha" type="matrix" values="0 0 0 0 0 0 0 0 0 0 0 0 0 0 0 0 0 0 127 0" result="hardAlpha"/>
<feOffset/>
<feGaussianBlur stdDeviation="1.5"/>
<feComposite in2="hardAlpha" operator="out"/>
<feColorMatrix type="matrix" values="0 0 0 0 0 0 0 0 0 0 0 0 0 0 0 0 0 0 0.15 0"/>
<feBlend mode="normal" in2="BackgroundImageFix" result="effect1_dropShadow_261_6154"/>
<feBlend mode="normal" in="SourceGraphic" in2="effect1_dropShadow_261_6154" result="shape"/>
</filter>
</defs>
</svg>
