<svg width="41" height="33" viewBox="0 0 41 33" fill="none" xmlns="http://www.w3.org/2000/svg">
<path d="M24.0001 31.5H12.8572M24.8572 26.1514H6.27885C4.78111 26.1514 4.03224 26.1514 3.46018 25.86C2.95698 25.6036 2.54787 25.1945 2.29148 24.6913C2 24.1192 2 23.3703 2 21.8726V5.77885C2 4.28111 2 3.53224 2.29148 2.96018C2.54787 2.45698 2.95698 2.04787 3.46018 1.79148C4.03224 1.5 4.78111 1.5 6.27885 1.5C-nan -nan -nan -nan -nan -nanC-nan -nan -nan -nan -nan -nanC-nan -nan -nan -nan 6.27885 1.5C6.27885 1.5 20.7579 1.5 30.0355 1.5C30.8585 1.5 32.4181 1.77519 33.0001 2.35714C33.8572 3.21429 33.8572 3.03854 34.2858 4.07143C34.7144 5.10432 34.7144 8.78571 34.7144 8.78571M18.4886 26.1514V31.5M25.9714 27.2212V14.3846C25.9714 12.8869 25.9714 12.138 26.2629 11.5659C26.5193 11.0627 26.9284 10.6536 27.4316 10.3972C28.0036 10.1058 33.5281 10.1058 31.7498 10.1058H35.0639C36.5617 10.1058 37.3105 10.1058 37.8826 10.3972C38.3858 10.6536 38.7949 11.0627 39.0513 11.5659C39.3428 12.138 39.3428 12.8869 39.3428 14.3846V27.2212C39.3428 28.7189 39.3428 29.4678 39.0513 30.0398C38.7949 30.543 38.3858 30.9521 37.8826 31.2085C37.3105 31.5 36.5617 31.5 35.0639 31.5H30.2502C28.7525 31.5 28.0036 31.5 27.4316 31.2085C26.9284 30.9521 26.5193 30.543 26.2629 30.0398C25.9714 29.4678 25.9714 28.7189 25.9714 27.2212Z" stroke="#EA5436" stroke-width="2.5" stroke-linecap="round" stroke-linejoin="round"/>
</svg>
