<svg width="51" height="50" viewBox="0 0 51 50" fill="none" xmlns="http://www.w3.org/2000/svg">
<g clip-path="url(#clip0_144_6063)">
<path d="M8.83333 12.4997V33.333H19.25V24.9997C19.25 23.8946 19.689 22.8348 20.4704 22.0534C21.2518 21.272 22.3116 20.833 23.4167 20.833H33.8333C34.9384 20.833 35.9982 21.272 36.7796 22.0534C37.561 22.8348 38 23.8946 38 24.9997V33.333H42.1667V12.4997H8.83333ZM0.5 41.6663V37.4997H8.83333C7.72826 37.4997 6.66846 37.0607 5.88705 36.2793C5.10565 35.4979 4.66667 34.4381 4.66667 33.333V12.4997C4.66667 11.3946 5.10565 10.3348 5.88705 9.5534C6.66846 8.77199 7.72826 8.33301 8.83333 8.33301H42.1667C43.2717 8.33301 44.3315 8.77199 45.1129 9.5534C45.8943 10.3348 46.3333 11.3946 46.3333 12.4997V33.333C46.3333 34.4381 45.8943 35.4979 45.1129 36.2793C44.3315 37.0607 43.2717 37.4997 42.1667 37.4997H50.5V41.6663H38C38 42.7714 37.561 43.8312 36.7796 44.6126C35.9982 45.394 34.9384 45.833 33.8333 45.833H23.4167C22.3116 45.833 21.2518 45.394 20.4704 44.6126C19.689 43.8312 19.25 42.7714 19.25 41.6663H0.5ZM24.4583 41.6663C24.1821 41.6663 23.9171 41.7761 23.7218 41.9714C23.5264 42.1668 23.4167 42.4317 23.4167 42.708C23.4167 42.9843 23.5264 43.2492 23.7218 43.4446C23.9171 43.6399 24.1821 43.7497 24.4583 43.7497C24.7346 43.7497 24.9996 43.6399 25.1949 43.4446C25.3903 43.2492 25.5 42.9843 25.5 42.708C25.5 42.4317 25.3903 42.1668 25.1949 41.9714C24.9996 41.7761 24.7346 41.6663 24.4583 41.6663ZM32.7917 41.6663C32.5154 41.6663 32.2504 41.7761 32.0551 41.9714C31.8597 42.1668 31.75 42.4317 31.75 42.708C31.75 42.9843 31.8597 43.2492 32.0551 43.4446C32.2504 43.6399 32.5154 43.7497 32.7917 43.7497C33.0679 43.7497 33.3329 43.6399 33.5282 43.4446C33.7236 43.2492 33.8333 42.9843 33.8333 42.708C33.8333 42.4317 33.7236 42.1668 33.5282 41.9714C33.3329 41.7761 33.0679 41.6663 32.7917 41.6663ZM27.5833 41.6663V43.7497H29.6667V41.6663H27.5833ZM23.4167 24.9997V39.583H33.8333V24.9997H23.4167Z" fill="black"/>
</g>
<defs>
<clipPath id="clip0_144_6063">
<rect width="50" height="50" fill="white" transform="translate(0.5)"/>
</clipPath>
</defs>
</svg>
