<svg width="97" height="97" viewBox="0 0 97 97" fill="none" xmlns="http://www.w3.org/2000/svg">
<path d="M32.5151 54.3605C32.0974 54.3513 31.7714 54.0024 31.7852 53.5893C31.7943 53.1716 32.1433 52.8458 32.5565 52.8549C32.9697 52.8641 33.2956 53.213 33.2865 53.6307C33.2773 54.0346 32.9421 54.3605 32.5335 54.3605C32.5289 54.3605 32.5243 54.3605 32.5151 54.3605ZM34.8061 53.5848C34.774 53.1716 35.077 52.809 35.4902 52.7723C35.9034 52.7356 36.2661 53.0431 36.3074 53.4562C36.3395 53.8693 36.0319 54.2319 35.6187 54.2733C35.6187 54.2733 35.6187 54.2733 35.6187 54.2687C35.6004 54.2733 35.5774 54.2733 35.5545 54.2733C35.1642 54.2733 34.8382 53.9795 34.8061 53.5848ZM29.4207 54.1034C29.0075 54.0438 28.7229 53.6628 28.7826 53.2543C28.8422 52.8412 29.2233 52.5566 29.6319 52.6163C30.0405 52.6713 30.3252 53.0523 30.2701 53.4654C30.2196 53.8418 29.8936 54.1126 29.5263 54.1126C29.4942 54.108 29.4575 54.1034 29.4207 54.1034ZM37.8041 53.2451C37.7261 52.8412 37.9878 52.4418 38.3918 52.3638C38.7958 52.2812 39.1952 52.5428 39.2779 52.9513C39.3559 53.3553 39.0942 53.7546 38.6856 53.8372C38.6351 53.8464 38.5892 53.851 38.5341 53.851C38.1898 53.851 37.8776 53.6031 37.8041 53.2451ZM26.3768 53.4884C25.9728 53.3828 25.7341 52.9743 25.8397 52.5704C25.9453 52.1664 26.3539 51.9278 26.7579 52.0333C27.1619 52.1389 27.4006 52.5474 27.295 52.9513C27.2032 53.291 26.9002 53.5159 26.5696 53.5159C26.5054 53.5159 26.4411 53.5021 26.3768 53.4884ZM40.747 52.5612C40.6185 52.1664 40.8388 51.7441 41.2291 51.6156H41.2337C41.6285 51.4871 42.0509 51.7074 42.1794 52.1022C42.308 52.4969 42.0876 52.9192 41.6928 53.0477C41.6193 53.0707 41.5367 53.0799 41.4586 53.0799C41.1419 53.0799 40.8526 52.8779 40.747 52.5612ZM23.4201 52.529C23.0391 52.3776 22.8462 51.9415 22.9932 51.556C23.1493 51.1704 23.5808 50.9776 23.9711 51.1291H23.9665C24.3521 51.2806 24.545 51.7166 24.3935 52.1022C24.2787 52.4005 23.994 52.5841 23.6956 52.5841C23.6038 52.5841 23.512 52.5658 23.4201 52.529ZM43.5889 51.5468C43.4145 51.1658 43.5797 50.7252 43.9608 50.5507C44.3373 50.3763 44.7826 50.5416 44.9571 50.9179C45.1315 51.2989 44.9617 51.7396 44.5852 51.9186C44.4842 51.9645 44.3786 51.9874 44.273 51.9874C43.9883 51.9874 43.7175 51.8222 43.5889 51.5468ZM20.5966 51.2438C20.2293 51.0465 20.087 50.592 20.2798 50.2294C20.4772 49.8622 20.9318 49.7199 21.2944 49.9127C21.6617 50.1101 21.8041 50.5645 21.6112 50.9271C21.4781 51.1842 21.2118 51.331 20.9455 51.331C20.8262 51.3265 20.7068 51.3035 20.5966 51.2438ZM46.2977 50.2111C46.0819 49.8531 46.2013 49.3941 46.5548 49.1783C46.9129 48.9626 47.372 49.0773 47.5878 49.4308C47.8036 49.7888 47.6842 50.2478 47.3307 50.4635C47.2113 50.537 47.0736 50.5737 46.945 50.5737C46.6879 50.5737 46.44 50.4452 46.2977 50.2111ZM17.9383 49.6373C17.5986 49.4032 17.5114 48.935 17.7409 48.5908C17.9751 48.2465 18.4434 48.1639 18.7877 48.3934C19.132 48.6275 19.2147 49.0957 18.9851 49.44C18.8382 49.6511 18.6041 49.7658 18.3653 49.7658C18.2138 49.7704 18.0669 49.7291 17.9383 49.6373ZM48.8366 48.5724C48.5795 48.2465 48.6392 47.7738 48.9697 47.5213C49.2957 47.2643 49.7686 47.3239 50.0211 47.659C50.2782 47.9849 50.2185 48.4577 49.8879 48.7101C49.7548 48.8203 49.5895 48.8662 49.4288 48.8662C49.2039 48.8662 48.9835 48.7652 48.8366 48.5724ZM15.4775 47.7462C15.1607 47.4708 15.1286 46.9981 15.404 46.6813C15.6749 46.3692 16.1478 46.3371 16.4646 46.6079C16.7768 46.8787 16.8089 47.3561 16.538 47.6682C16.3865 47.8426 16.1799 47.9298 15.9688 47.9298C15.7943 47.9252 15.6244 47.8656 15.4775 47.7462ZM51.1689 46.663C50.8796 46.3646 50.8888 45.8873 51.1826 45.5981C51.4811 45.3089 51.9585 45.3181 52.2478 45.6119C52.537 45.9102 52.5278 46.3876 52.234 46.6768C52.0871 46.819 51.8988 46.8925 51.7106 46.8925C51.5178 46.8925 51.3204 46.8145 51.1689 46.663ZM13.2508 45.5797C12.9708 45.2768 12.9937 44.7994 13.2967 44.5148C13.5997 44.2349 14.0772 44.2578 14.3573 44.5653C14.6373 44.8683 14.619 45.341 14.3159 45.6256C14.169 45.7587 13.99 45.823 13.8063 45.823C13.5997 45.823 13.4023 45.7404 13.2508 45.5797ZM53.2762 44.4965C52.9548 44.2349 52.9089 43.7621 53.1706 43.4362C53.4323 43.1149 53.9052 43.069 54.2311 43.3306C54.5525 43.5922 54.5984 44.065 54.3367 44.3909C54.1852 44.5699 53.974 44.6663 53.7537 44.6663C53.5884 44.6663 53.4185 44.6112 53.2762 44.4965ZM11.2858 43.1791C11.0425 42.8441 11.1113 42.3759 11.4465 42.1326C11.7862 41.8893 12.2545 41.9582 12.4979 42.2979C12.7412 42.6329 12.6677 43.1011 12.3326 43.3444C12.1949 43.4408 12.0433 43.4867 11.8872 43.4867C11.6623 43.4867 11.4327 43.3811 11.2858 43.1791ZM55.1218 42.1051C54.7729 41.8802 54.6765 41.4166 54.9014 41.0677C55.1218 40.7189 55.5901 40.6179 55.939 40.8428C56.288 41.0677 56.389 41.5359 56.164 41.8802C56.0217 42.1051 55.7783 42.2244 55.5304 42.2244C55.3881 42.2244 55.2504 42.1877 55.1218 42.1051ZM9.60087 40.572C9.39427 40.2094 9.52282 39.7504 9.88552 39.5484C10.2482 39.3419 10.7027 39.4704 10.9093 39.8284C11.1113 40.191 10.9828 40.6454 10.6293 40.852C10.5099 40.9208 10.3814 40.953 10.2574 40.953C9.99112 40.953 9.74319 40.8153 9.60087 40.572ZM56.6828 39.5209C56.3109 39.3373 56.1548 38.8921 56.3385 38.5157C56.5221 38.1439 56.972 37.9924 57.3439 38.176C57.7158 38.3596 57.8719 38.8094 57.6882 39.1812C57.5551 39.4474 57.2888 39.6035 57.0133 39.6035C56.9078 39.5989 56.793 39.5714 56.6828 39.5209ZM8.22813 37.7904C8.06744 37.4049 8.24649 36.9688 8.62755 36.8036C9.00862 36.6475 9.44936 36.8219 9.61464 37.2075C9.77533 37.5885 9.59628 38.0291 9.21062 38.1898C9.1188 38.2311 9.01321 38.2494 8.91679 38.2494C8.62755 38.2494 8.35209 38.075 8.22813 37.7904ZM57.9408 36.7715C57.5505 36.6338 57.3485 36.2023 57.4862 35.8075C57.624 35.4174 58.0555 35.2154 58.4504 35.3531C58.8406 35.4908 59.0426 35.9223 58.9049 36.317C58.7947 36.6246 58.5055 36.8174 58.1979 36.8174C58.106 36.8174 58.0234 36.8036 57.9408 36.7715ZM7.18135 34.8666C7.06657 34.4673 7.29154 34.0496 7.68637 33.9348C8.0858 33.8155 8.50359 34.045 8.62296 34.4443C8.73774 34.8436 8.50818 35.2613 8.11335 35.3761C8.03989 35.399 7.97102 35.4082 7.90216 35.4082C7.57619 35.4036 7.27776 35.1971 7.18135 34.8666ZM58.8728 33.8981C58.4687 33.8063 58.2208 33.4024 58.3126 32.9984C58.4045 32.5945 58.8085 32.3467 59.2125 32.4385C59.6165 32.5303 59.8644 32.9342 59.7726 33.3381C59.6946 33.6824 59.387 33.9165 59.0426 33.9165C58.9875 33.9165 58.9324 33.9119 58.8728 33.8981ZM6.47891 31.8418C6.40545 31.4332 6.68092 31.0431 7.08953 30.9742C7.49814 30.9008 7.88838 31.1762 7.95725 31.5847C8.03071 31.9932 7.75524 32.3834 7.34663 32.4522C7.30072 32.4614 7.2594 32.4614 7.21808 32.4614C6.85997 32.466 6.53859 32.209 6.47891 31.8418ZM59.4696 30.9375C59.0564 30.8916 58.758 30.5198 58.8085 30.1067C58.8544 29.6936 59.2263 29.3999 59.6395 29.4458C60.0527 29.4917 60.3511 29.868 60.3006 30.2766C60.2593 30.6575 59.9333 30.9467 59.5568 30.9467C59.5247 30.9467 59.4971 30.9421 59.4696 30.9375ZM6.1208 28.7573C6.09785 28.3442 6.41463 27.9907 6.83243 27.9632C7.24563 27.9402 7.59914 28.2569 7.62669 28.6746C7.64964 29.0877 7.33286 29.4412 6.91966 29.4687C6.90588 29.4687 6.88752 29.4687 6.87375 29.4687C6.47891 29.4687 6.14835 29.1612 6.1208 28.7573ZM58.9738 27.1829C58.9738 27.1737 58.9738 27.1645 58.9738 27.1507C58.9738 27.1416 58.9738 27.137 58.9738 27.1232C58.9692 26.7101 59.3089 26.3704 59.7221 26.3704C60.1399 26.3704 60.4751 26.7055 60.4796 27.1232C60.4796 27.1324 60.4796 27.1416 60.4796 27.1507C60.4796 27.1599 60.4796 27.1691 60.4796 27.1829C60.4796 27.596 60.1399 27.9356 59.7267 27.9356C59.3089 27.931 58.9738 27.596 58.9738 27.1829ZM6.82783 26.4531C6.41463 26.4255 6.09785 26.0721 6.1208 25.659C6.14376 25.2413 6.49727 24.9246 6.91047 24.9475C7.32827 24.9705 7.64505 25.3285 7.6221 25.7416C7.59914 26.1409 7.26858 26.4531 6.86915 26.4531C6.85997 26.4531 6.84161 26.4531 6.82783 26.4531ZM58.7993 24.1993C58.7488 23.7862 59.0472 23.4145 59.4604 23.364C59.8736 23.3181 60.2455 23.6118 60.2914 24.0249C60.3419 24.438 60.0481 24.8098 59.6349 24.8557C59.6027 24.8603 59.5752 24.8649 59.5477 24.8649C59.1666 24.8649 58.8452 24.5803 58.7993 24.1993ZM7.08494 23.442C6.67633 23.3685 6.40086 22.983 6.46973 22.5745C6.54318 22.166 6.92884 21.8906 7.33745 21.9594C7.74606 22.0328 8.02152 22.4184 7.94807 22.8269C7.88838 23.1941 7.567 23.4558 7.2089 23.4558C7.16758 23.4558 7.12626 23.4512 7.08494 23.442ZM58.2943 21.3076C58.2025 20.9037 58.4504 20.4998 58.859 20.408C59.263 20.3162 59.667 20.564 59.7588 20.968C59.8507 21.3719 59.6027 21.7758 59.1987 21.8676C59.139 21.8814 59.0839 21.8906 59.0243 21.8906C58.6891 21.8906 58.3769 21.6519 58.2943 21.3076ZM7.6726 20.4814C7.27317 20.3667 7.04821 19.949 7.16299 19.5496C7.28235 19.1503 7.70015 18.9208 8.09498 19.0401C8.499 19.1549 8.72397 19.5726 8.60919 19.9719C8.51277 20.2978 8.20976 20.5135 7.88379 20.5135C7.81492 20.5135 7.74606 20.4998 7.6726 20.4814ZM57.4633 18.4985C57.3255 18.1084 57.5276 17.6769 57.9178 17.5346C58.308 17.3969 58.735 17.5989 58.8819 17.989C59.0197 18.3792 58.8177 18.8061 58.4274 18.9483C58.3448 18.9805 58.2575 18.9942 58.1703 18.9942C57.8627 18.9942 57.5781 18.8015 57.4633 18.4985ZM8.6046 17.6081C8.22353 17.4474 8.03989 17.0068 8.20058 16.6258C8.36127 16.2448 8.80661 16.0612 9.18308 16.2219C9.56414 16.3825 9.74779 16.8277 9.5871 17.2041C9.46773 17.4933 9.18767 17.6677 8.89384 17.6677C8.80201 17.6677 8.70101 17.6494 8.6046 17.6081ZM56.3201 15.7996C56.1364 15.4278 56.288 14.978 56.6598 14.7944C57.0317 14.6108 57.4816 14.7622 57.6653 15.134C57.6653 15.134 57.6653 15.134 57.6653 15.1386C57.8489 15.5104 57.6974 15.9556 57.3255 16.1438C57.2154 16.1989 57.1052 16.2219 56.9904 16.2219C56.7195 16.2173 56.4486 16.0612 56.3201 15.7996ZM9.85797 14.8586C9.49527 14.6521 9.37131 14.1931 9.57791 13.8305C9.77992 13.4678 10.239 13.3439 10.6017 13.5459C10.9644 13.7478 11.0884 14.2068 10.8864 14.5695V14.574C10.7486 14.8173 10.4915 14.955 10.2299 14.955C10.1013 14.955 9.97275 14.9229 9.85797 14.8586ZM54.8693 13.2475C54.6443 12.9033 54.7453 12.4351 55.0943 12.2102C55.4432 11.9853 55.9069 12.0862 56.1319 12.4305C56.3568 12.7793 56.2604 13.2475 55.9115 13.4724C55.7829 13.5551 55.6452 13.5918 55.5075 13.5918C55.255 13.5964 55.0162 13.4724 54.8693 13.2475ZM11.419 12.2744C11.0792 12.0312 11.0058 11.5584 11.2491 11.2279C11.4924 10.8882 11.9653 10.8194 12.3004 11.0581C12.6356 11.3013 12.7091 11.7695 12.4657 12.1092C12.3188 12.3112 12.0893 12.4167 11.8551 12.4167C11.7082 12.4167 11.5521 12.3708 11.419 12.2744ZM53.1384 10.8837C52.8768 10.5624 52.9227 10.0896 53.244 9.82795C53.5654 9.56631 54.0383 9.61221 54.3 9.92893C54.5617 10.2502 54.5158 10.7276 54.199 10.9892C54.0567 11.104 53.8868 11.1591 53.7215 11.1591C53.5057 11.1545 53.29 11.0627 53.1384 10.8837ZM13.2646 9.87844C12.9616 9.59844 12.9386 9.12108 13.2187 8.81814C13.4987 8.5106 13.9762 8.49225 14.2792 8.76765C14.5868 9.04764 14.6052 9.525 14.3297 9.83254C14.1782 9.99319 13.9762 10.0758 13.7742 10.0758C13.5906 10.0758 13.4069 10.0115 13.2646 9.87844ZM51.1505 8.72634C50.8521 8.44176 50.8475 7.96439 51.1367 7.66604C51.4214 7.36769 51.8988 7.35851 52.1973 7.64768C52.4957 7.93685 52.5049 8.41421 52.2156 8.71257C52.0687 8.86404 51.8713 8.94207 51.6739 8.94207C51.4856 8.93748 51.2974 8.86863 51.1505 8.72634ZM15.3673 7.71653C15.0918 7.39982 15.1286 6.92704 15.4408 6.65164C15.4408 6.65164 15.4408 6.65164 15.4408 6.65623C15.7576 6.38083 16.2304 6.41755 16.5013 6.72967C16.7768 7.04179 16.7401 7.51457 16.4279 7.78997C16.2855 7.9139 16.1065 7.97357 15.9366 7.97357C15.7254 7.96898 15.5142 7.88177 15.3673 7.71653ZM48.933 6.8077C48.607 6.55525 48.5427 6.08248 48.7998 5.75658C49.0524 5.4261 49.5252 5.36643 49.8512 5.61888C50.1818 5.87134 50.2415 6.34411 49.9889 6.67C49.8374 6.86737 49.6171 6.96376 49.3921 6.96376C49.2314 6.96376 49.0707 6.91327 48.933 6.8077ZM17.6996 5.79789C17.4609 5.45364 17.5481 4.98546 17.8924 4.75137C18.2322 4.51268 18.7051 4.5999 18.9392 4.94415C19.1734 5.28381 19.0861 5.75658 18.7418 5.99068C18.6086 6.08248 18.4617 6.12838 18.3148 6.12838C18.0807 6.12379 17.8465 6.00904 17.6996 5.79789ZM46.5089 5.15529C46.1508 4.93956 46.036 4.48055 46.2518 4.12253C46.4676 3.7691 46.9267 3.65435 47.2848 3.86549C47.6383 4.08122 47.7531 4.54022 47.5419 4.89825C47.4041 5.13234 47.1516 5.26086 46.8945 5.26086C46.7614 5.26545 46.6328 5.22873 46.5089 5.15529ZM20.2385 4.15925C20.0411 3.79205 20.1834 3.33764 20.5507 3.14485C20.9134 2.94748 21.3679 3.08977 21.5653 3.45239C21.7627 3.81959 21.6204 4.274 21.2531 4.47137C21.1384 4.53104 21.019 4.55859 20.9042 4.55859C20.6333 4.55859 20.3716 4.41629 20.2385 4.15925ZM43.9149 3.78746C43.5338 3.61304 43.3685 3.17239 43.543 2.79142C43.7175 2.41504 44.1582 2.24521 44.5347 2.41963C44.5347 2.41963 44.5347 2.41963 44.5393 2.41963C44.9158 2.59405 45.0856 3.03469 44.9112 3.41567C44.7826 3.69566 44.5071 3.85631 44.2271 3.85631C44.1215 3.85631 44.0159 3.83336 43.9149 3.78746ZM22.9427 2.82355C22.7912 2.43799 22.984 2.00194 23.3696 1.85046C23.7553 1.69899 24.1869 1.88718 24.343 2.27275C24.4945 2.65831 24.3016 3.09436 23.916 3.24584C23.8242 3.28256 23.7369 3.29633 23.6405 3.29633C23.3421 3.30092 23.062 3.11731 22.9427 2.82355ZM41.1786 2.72716C40.7837 2.59864 40.568 2.17636 40.6919 1.78161C40.8205 1.38687 41.2429 1.17114 41.6377 1.29507C42.0325 1.42359 42.2483 1.84587 42.1244 2.24062C42.0188 2.56192 41.7249 2.76388 41.4081 2.76388C41.3301 2.76388 41.252 2.7547 41.1786 2.72716ZM25.7892 1.80456C25.6836 1.40064 25.9223 0.992128 26.3217 0.886557C26.7257 0.776396 27.1344 1.01967 27.2445 1.419C27.3501 1.82292 27.1114 2.23144 26.7074 2.33701C26.6431 2.35537 26.5788 2.36455 26.5146 2.36455C26.1794 2.36455 25.8764 2.13964 25.7892 1.80456ZM38.3367 1.98817C37.9327 1.91013 37.6664 1.5108 37.7444 1.10688C37.8271 0.702956 38.2219 0.432143 38.6305 0.519354C39.0345 0.601975 39.3008 0.996718 39.2182 1.40064C39.1447 1.75866 38.8325 2.00653 38.4836 2.00653C38.4377 2.00194 38.3872 1.99735 38.3367 1.98817ZM28.7275 1.12065C28.6724 0.707546 28.9524 0.326573 29.3656 0.266902C29.7742 0.207232 30.1599 0.491814 30.215 0.904917C30.2747 1.31343 29.99 1.6944 29.5814 1.75407C29.5447 1.75866 29.508 1.76325 29.4712 1.76325C29.1039 1.76325 28.7826 1.49244 28.7275 1.12065ZM35.4351 1.58424C35.0219 1.54752 34.7143 1.18491 34.7464 0.771806C34.7786 0.354113 35.1459 0.0511706 35.5591 0.0833008C35.9723 0.115431 36.2799 0.482634 36.2477 0.895737C36.2156 1.28589 35.885 1.58424 35.4948 1.58424C35.4764 1.58424 35.4535 1.58424 35.4351 1.58424ZM31.7255 0.776396C31.7163 0.358703 32.0423 0.00986024 32.4555 0.000680165C32.8733 -0.00849991 33.2176 0.312803 33.2314 0.730496C33.2451 1.1436 32.9192 1.48785 32.5014 1.50621C32.4922 1.50621 32.4876 1.50621 32.4784 1.50621C32.0698 1.50162 31.7392 1.18032 31.7255 0.776396Z" fill="#6C5A4C"/>
<path d="M83.6197 27.4146L27.0303 13.417L13.286 68.9824L69.8754 82.9799L83.6197 27.4146Z" fill="#F6DAC3"/>
<mask id="mask0_285_6155" style="mask-type:alpha" maskUnits="userSpaceOnUse" x="11" y="11" width="74" height="74">
<path d="M11.5341 30.5813L66.0581 11.6362L84.8377 65.6835L30.3137 84.6287L11.5341 30.5813Z" fill="#EFEEEA" stroke="black" stroke-width="0.0229327"/>
</mask>
<g mask="url(#mask0_285_6155)">
<path d="M84.2251 64.5804C81.2075 65.6289 80.0653 62.3417 77.0477 63.3902C74.03 64.4387 75.1722 67.726 72.1546 68.7745C69.137 69.823 67.9948 66.5358 64.9772 67.5843C61.9596 68.6328 63.1018 71.92 60.0842 72.9685C57.0665 74.017 55.9244 70.7298 52.9067 71.7783C49.8891 72.8268 51.0313 76.114 48.0137 77.1626C44.9961 78.2111 43.8539 74.9239 40.8363 75.9724C37.8187 77.0209 38.9609 80.3081 35.9368 81.3589C32.9192 82.4074 31.777 79.1201 28.7529 80.1709" stroke="#FBA462" stroke-width="0.573317" stroke-miterlimit="10" stroke-linecap="round"/>
<path d="M82.2973 59.0335C79.2797 60.0821 78.1375 56.7948 75.1199 57.8433C72.1023 58.8919 73.2445 62.1791 70.2269 63.2276C67.2093 64.2761 66.0671 60.9889 63.0495 62.0374C60.0319 63.0859 61.174 66.3731 58.1564 67.4216C55.1388 68.4701 53.9966 65.1829 50.979 66.2314C47.9614 67.28 49.1036 70.5672 46.086 71.6157C43.0684 72.6642 41.9262 69.377 38.9085 70.4255C35.8909 71.474 37.0331 74.7612 34.0091 75.812C30.9915 76.8605 29.8493 73.5733 26.8252 74.624" stroke="#FBA462" stroke-width="0.573317" stroke-miterlimit="10" stroke-linecap="round"/>
<path d="M80.3704 53.4882C77.3528 54.5367 76.2106 51.2495 73.193 52.298C70.1753 53.3465 71.3175 56.6338 68.2999 57.6823C65.2823 58.7308 64.1401 55.4436 61.1225 56.4921C58.1049 57.5406 59.2471 60.8278 56.2295 61.8763C53.2119 62.9248 52.0697 59.6376 49.052 60.6861C46.0344 61.7346 47.1766 65.0219 44.159 66.0704C41.1414 67.1189 39.9992 63.8317 36.9816 64.8802C33.964 65.9287 35.1062 69.2159 32.0821 70.2667C29.0709 71.3129 27.9287 68.0257 24.9111 69.0742" stroke="#FBA462" stroke-width="0.573317" stroke-miterlimit="10" stroke-linecap="round"/>
<path d="M71.7002 27.8369C68.6706 28.8896 67.5239 25.5893 64.4943 26.642C61.4647 27.6946 62.6114 30.9949 59.5818 32.0476C56.5522 33.1003 55.4055 29.8 52.3759 30.8527C49.3463 31.9053 50.493 35.2056 47.4634 36.2583C44.4338 37.311 43.2871 34.0107 40.2575 35.0634C37.2279 36.116 38.3747 39.4163 35.3451 40.469C32.3155 41.5217 31.1687 38.2214 28.1391 39.2741C25.1095 40.3267 26.2563 43.627 23.2202 44.6819C20.1906 45.7346 19.0439 42.4343 16.0078 43.4893" stroke="#FBA462" stroke-width="0.573317" stroke-miterlimit="10" stroke-linecap="round"/>
<path d="M69.7656 22.2685C66.736 23.3212 65.5893 20.0209 62.5597 21.0736C59.5301 22.1263 60.6768 25.4265 57.6472 26.4792C54.6176 27.5319 53.4709 24.2316 50.4413 25.2843C47.4117 26.337 48.5585 29.6372 45.5289 30.6899C42.4993 31.7426 41.3525 28.4423 38.3229 29.495C35.2934 30.5477 36.4401 33.8479 33.4105 34.9006C30.3809 35.9533 29.2342 32.653 26.2046 33.7057C23.175 34.7584 24.3217 38.0586 21.2856 39.1136C18.256 40.1662 17.1093 36.866 14.0732 37.9209" stroke="#FBA462" stroke-width="0.573317" stroke-miterlimit="10" stroke-linecap="round"/>
<path d="M67.8308 16.7012C64.8012 17.7539 63.6545 14.4536 60.6249 15.5063C57.5953 16.559 58.742 19.8593 55.7124 20.9119C52.6828 21.9646 51.5361 18.6643 48.5065 19.717C45.4769 20.7697 46.6236 24.07 43.594 25.1226C40.5644 26.1753 39.4177 22.875 36.3881 23.9277C33.3585 24.9804 34.5053 28.2807 31.4757 29.3333C28.4461 30.386 27.2993 27.0857 24.2697 28.1384C21.2402 29.1911 22.3869 32.4914 19.3508 33.5463C16.3277 34.5967 15.181 31.2964 12.1514 32.3491" stroke="#FBA462" stroke-width="0.573317" stroke-miterlimit="10" stroke-linecap="round"/>
<path d="M78.0742 46.185C75.0446 47.2377 73.8979 43.9374 70.8683 44.9901C67.8387 46.0428 68.9854 49.343 65.9558 50.3957C62.9262 51.4484 61.7795 48.1481 58.7499 49.2008C55.7203 50.2535 56.8671 53.5537 53.8375 54.6064C50.8079 55.6591 49.6611 52.3588 46.6315 53.4115C43.6019 54.4642 44.7487 57.7644 41.7191 58.8171C38.6895 59.8698 37.5428 56.5695 34.5132 57.6222C31.4836 58.6749 32.6303 61.9751 29.5942 63.0301C26.5646 64.0827 25.4179 60.7825 22.3818 61.8374" stroke="#FBA462" stroke-width="0.573317" stroke-miterlimit="10" stroke-linecap="round"/>
<path d="M76.1392 40.6157C73.1096 41.6684 71.9628 38.3681 68.9332 39.4208C65.9036 40.4734 67.0504 43.7737 64.0208 44.8264C60.9912 45.8791 59.8445 42.5788 56.8149 43.6315C53.7853 44.6841 54.932 47.9844 51.9024 49.0371C48.8728 50.0898 47.7261 46.7895 44.6965 47.8422C41.6669 48.8948 42.8136 52.1951 39.784 53.2478C36.7544 54.3005 35.6077 51.0002 32.5781 52.0529C29.5485 53.1055 30.6952 56.4058 27.6592 57.4607C24.6296 58.5134 23.4828 55.2131 20.4468 56.2681" stroke="#FBA462" stroke-width="0.573317" stroke-miterlimit="10" stroke-linecap="round"/>
<path d="M74.2048 35.0484C71.1752 36.1011 70.0285 32.8008 66.9989 33.8535C63.9693 34.9062 65.116 38.2064 62.0864 39.2591C59.0569 40.3118 57.9101 37.0115 54.8805 38.0642C51.8509 39.1169 52.9977 42.4171 49.9681 43.4698C46.9385 44.5225 45.7917 41.2222 42.7621 42.2749C39.7326 43.3276 40.8793 46.6278 37.8497 47.6805C34.8201 48.7332 33.6734 45.4329 30.6438 46.4856C27.6142 47.5383 28.7609 50.8385 25.7248 51.8935C22.7017 52.9439 21.555 49.6436 18.5254 50.6963" stroke="#FBA462" stroke-width="0.573317" stroke-miterlimit="10" stroke-linecap="round"/>
</g>
</svg>
