<svg width="306" height="283" viewBox="0 0 306 283" fill="none" xmlns="http://www.w3.org/2000/svg">
<path d="M131.402 222.838C130.019 222.808 128.939 221.653 128.985 220.285C129.015 218.902 130.171 217.823 131.539 217.853C132.907 217.883 133.986 219.038 133.956 220.422C133.926 221.759 132.816 222.838 131.463 222.838C131.448 222.838 131.432 222.838 131.402 222.838ZM138.988 220.27C138.882 218.902 139.885 217.701 141.253 217.579C142.621 217.458 143.822 218.476 143.959 219.844C144.066 221.212 143.047 222.413 141.679 222.549C141.679 222.549 141.679 222.549 141.679 222.534C141.618 222.549 141.542 222.549 141.466 222.549C140.174 222.549 139.094 221.577 138.988 220.27ZM121.156 221.987C119.787 221.789 118.845 220.528 119.043 219.175C119.24 217.807 120.502 216.865 121.855 217.063C123.208 217.245 124.151 218.506 123.968 219.874C123.801 221.121 122.722 222.017 121.505 222.017C121.399 222.002 121.277 221.987 121.156 221.987ZM148.915 219.145C148.657 217.807 149.523 216.485 150.861 216.227C152.199 215.953 153.522 216.819 153.795 218.172C154.054 219.51 153.187 220.832 151.834 221.105C151.667 221.136 151.515 221.151 151.332 221.151C150.192 221.151 149.158 220.33 148.915 219.145ZM111.077 219.95C109.739 219.601 108.948 218.248 109.298 216.911C109.647 215.573 111.001 214.783 112.338 215.132C113.676 215.482 114.467 216.835 114.117 218.172C113.813 219.297 112.81 220.042 111.715 220.042C111.502 220.042 111.289 219.996 111.077 219.95ZM158.66 216.88C158.234 215.573 158.964 214.175 160.256 213.749H160.271C161.579 213.324 162.977 214.053 163.403 215.36C163.829 216.667 163.099 218.066 161.792 218.491C161.548 218.567 161.275 218.598 161.016 218.598C159.967 218.598 159.01 217.929 158.66 216.88ZM101.286 216.774C100.024 216.272 99.3859 214.828 99.8724 213.552C100.389 212.275 101.818 211.637 103.11 212.138H103.095C104.372 212.64 105.011 214.084 104.509 215.36C104.129 216.348 103.186 216.956 102.198 216.956C101.894 216.956 101.59 216.895 101.286 216.774ZM168.07 213.521C167.493 212.26 168.04 210.801 169.302 210.223C170.548 209.646 172.023 210.193 172.601 211.439C173.178 212.701 172.616 214.16 171.369 214.752C171.035 214.904 170.685 214.98 170.335 214.98C169.393 214.98 168.496 214.433 168.07 213.521ZM91.9367 212.518C90.7205 211.865 90.2493 210.36 90.8878 209.159C91.5415 207.943 93.0465 207.472 94.2475 208.11C95.4637 208.764 95.9349 210.269 95.2965 211.469C94.8556 212.321 93.9738 212.807 93.0921 212.807C92.6968 212.792 92.3016 212.716 91.9367 212.518ZM177.04 209.098C176.325 207.913 176.72 206.393 177.891 205.679C179.077 204.964 180.597 205.344 181.311 206.515C182.026 207.7 181.631 209.22 180.46 209.934C180.065 210.178 179.609 210.299 179.183 210.299C178.332 210.299 177.511 209.874 177.04 209.098ZM83.1345 207.199C82.0096 206.423 81.7207 204.873 82.4808 203.733C83.2562 202.593 84.8068 202.32 85.947 203.08C87.0872 203.855 87.3608 205.405 86.6007 206.545C86.1142 207.244 85.3389 207.624 84.5484 207.624C84.0467 207.639 83.5602 207.503 83.1345 207.199ZM185.447 203.672C184.595 202.593 184.793 201.028 185.887 200.192C186.967 199.341 188.533 199.538 189.369 200.648C190.22 201.727 190.022 203.292 188.928 204.128C188.487 204.493 187.94 204.645 187.408 204.645C186.663 204.645 185.933 204.311 185.447 203.672ZM74.9861 200.937C73.9371 200.025 73.8307 198.459 74.7428 197.411C75.6398 196.377 77.2056 196.271 78.2546 197.167C79.2883 198.064 79.3948 199.645 78.4978 200.678C77.9961 201.256 77.312 201.545 76.6127 201.545C76.035 201.529 75.4725 201.332 74.9861 200.937ZM193.169 197.35C192.212 196.362 192.242 194.781 193.215 193.824C194.203 192.866 195.784 192.897 196.742 193.869C197.7 194.857 197.669 196.438 196.696 197.395C196.21 197.867 195.587 198.11 194.963 198.11C194.325 198.11 193.671 197.851 193.169 197.35ZM67.6129 193.763C66.6856 192.76 66.7616 191.179 67.765 190.237C68.7683 189.31 70.3494 189.386 71.2767 190.404C72.204 191.407 72.1432 192.972 71.1399 193.915C70.6534 194.356 70.0605 194.568 69.4524 194.568C68.7683 194.568 68.1146 194.295 67.6129 193.763ZM200.147 190.176C199.083 189.31 198.931 187.744 199.798 186.665C200.664 185.601 202.23 185.449 203.309 186.315C204.373 187.182 204.526 188.747 203.659 189.826C203.157 190.419 202.458 190.738 201.728 190.738C201.181 190.738 200.618 190.556 200.147 190.176ZM61.1063 185.814C60.3006 184.704 60.5286 183.154 61.6384 182.349C62.7634 181.543 64.314 181.771 65.1197 182.896C65.9255 184.005 65.6822 185.555 64.5725 186.361C64.1164 186.68 63.6147 186.832 63.0978 186.832C62.3529 186.832 61.5928 186.483 61.1063 185.814ZM206.259 182.257C205.103 181.513 204.784 179.978 205.529 178.822C206.259 177.667 207.809 177.333 208.965 178.078C210.12 178.822 210.454 180.373 209.71 181.513C209.238 182.257 208.433 182.653 207.612 182.653C207.14 182.653 206.684 182.531 206.259 182.257ZM55.527 177.181C54.8429 175.98 55.2686 174.46 56.4696 173.792C57.6706 173.108 59.1756 173.533 59.8597 174.719C60.5286 175.919 60.103 177.424 58.9324 178.108C58.5371 178.336 58.1114 178.442 57.701 178.442C56.8192 178.442 55.9983 177.986 55.527 177.181ZM211.427 173.7C210.196 173.092 209.679 171.618 210.287 170.372C210.895 169.141 212.385 168.639 213.617 169.247C214.848 169.855 215.365 171.345 214.757 172.576C214.316 173.457 213.434 173.974 212.522 173.974C212.172 173.959 211.792 173.868 211.427 173.7ZM50.9815 167.97C50.4494 166.694 51.0423 165.25 52.3041 164.703C53.5659 164.186 55.0254 164.764 55.5726 166.04C56.1047 167.302 55.5118 168.761 54.2348 169.293C53.9308 169.43 53.5811 169.49 53.2619 169.49C52.3041 169.49 51.392 168.913 50.9815 167.97ZM215.593 164.596C214.301 164.14 213.632 162.712 214.088 161.405C214.544 160.113 215.973 159.444 217.28 159.9C218.573 160.356 219.241 161.785 218.785 163.092C218.42 164.11 217.463 164.748 216.444 164.748C216.14 164.748 215.866 164.703 215.593 164.596ZM47.5154 158.289C47.1353 156.967 47.8802 155.583 49.1876 155.203C50.5103 154.808 51.8937 155.568 52.2889 156.891C52.669 158.213 51.9089 159.596 50.6015 159.976C50.3582 160.052 50.1302 160.082 49.9022 160.082C48.8228 160.067 47.8346 159.383 47.5154 158.289ZM218.679 155.082C217.341 154.778 216.52 153.44 216.824 152.103C217.128 150.765 218.466 149.945 219.804 150.249C221.142 150.553 221.963 151.89 221.659 153.228C221.4 154.368 220.382 155.143 219.241 155.143C219.059 155.143 218.877 155.127 218.679 155.082ZM45.1894 148.273C44.9462 146.92 45.8583 145.628 47.2113 145.4C48.5644 145.157 49.8566 146.069 50.0846 147.422C50.3278 148.774 49.4157 150.066 48.0627 150.294C47.9106 150.325 47.7738 150.325 47.637 150.325C46.4512 150.34 45.3871 149.489 45.1894 148.273ZM220.655 145.279C219.287 145.127 218.299 143.896 218.466 142.528C218.618 141.16 219.849 140.187 221.218 140.339C222.586 140.491 223.574 141.737 223.407 143.09C223.27 144.352 222.191 145.309 220.944 145.309C220.838 145.309 220.746 145.294 220.655 145.279ZM44.0036 138.059C43.9276 136.691 44.9766 135.521 46.36 135.43C47.7282 135.354 48.8988 136.403 48.99 137.786C49.066 139.154 48.0171 140.324 46.6489 140.415C46.6032 140.415 46.5424 140.415 46.4968 140.415C45.1894 140.415 44.0949 139.397 44.0036 138.059ZM219.013 132.846C219.013 132.816 219.013 132.785 219.013 132.74C219.013 132.709 219.013 132.694 219.013 132.648C218.998 131.281 220.123 130.156 221.491 130.156C222.875 130.156 223.985 131.265 224 132.648C224 132.679 224 132.709 224 132.74C224 132.77 224 132.8 224 132.846C224 134.214 222.875 135.339 221.507 135.339C220.123 135.323 219.013 134.214 219.013 132.846ZM46.3448 130.429C44.9766 130.338 43.9276 129.168 44.0036 127.8C44.0797 126.417 45.2502 125.368 46.6184 125.444C48.0019 125.52 49.0508 126.706 48.9748 128.074C48.8988 129.396 47.8042 130.429 46.4816 130.429C46.4512 130.429 46.3904 130.429 46.3448 130.429ZM218.436 122.967C218.268 121.599 219.257 120.368 220.625 120.201C221.993 120.049 223.224 121.021 223.376 122.389C223.544 123.757 222.571 124.988 221.203 125.14C221.096 125.155 221.005 125.171 220.914 125.171C219.652 125.171 218.588 124.228 218.436 122.967ZM47.1961 120.459C45.8431 120.216 44.931 118.939 45.159 117.586C45.4023 116.234 46.6793 115.322 48.0323 115.55C49.3853 115.793 50.2974 117.07 50.0542 118.422C49.8566 119.638 48.7924 120.505 47.6066 120.505C47.4698 120.505 47.333 120.489 47.1961 120.459ZM216.763 113.392C216.459 112.054 217.28 110.717 218.633 110.413C219.971 110.109 221.309 110.929 221.613 112.267C221.917 113.604 221.096 114.942 219.758 115.246C219.561 115.291 219.378 115.322 219.181 115.322C218.071 115.322 217.037 114.531 216.763 113.392ZM49.142 110.656C47.8194 110.276 47.0745 108.893 47.4546 107.57C47.8498 106.248 49.2333 105.488 50.5407 105.883C51.8785 106.263 52.6234 107.646 52.2433 108.969C51.9241 110.048 50.9207 110.762 49.8414 110.762C49.6133 110.762 49.3853 110.717 49.142 110.656ZM214.012 104.09C213.556 102.798 214.225 101.369 215.517 100.898C216.809 100.442 218.223 101.111 218.709 102.403C219.165 103.695 218.496 105.108 217.204 105.579C216.931 105.686 216.642 105.731 216.353 105.731C215.334 105.731 214.392 105.093 214.012 104.09ZM52.2281 101.141C50.9663 100.609 50.3582 99.1503 50.8903 97.8888C51.4224 96.6273 52.897 96.0194 54.1436 96.5513C55.4054 97.0833 56.0135 98.5576 55.4814 99.8039C55.0862 100.761 54.1588 101.339 53.1859 101.339C52.8818 101.339 52.5474 101.278 52.2281 101.141ZM210.226 95.153C209.618 93.9219 210.12 92.4324 211.351 91.8245C212.583 91.2165 214.073 91.7181 214.681 92.9492C214.681 92.9492 214.681 92.9492 214.681 92.9644C215.289 94.1955 214.787 95.6698 213.556 96.2929C213.191 96.4753 212.826 96.5513 212.446 96.5513C211.549 96.5361 210.652 96.0194 210.226 95.153ZM56.3784 92.0373C55.1774 91.3533 54.7669 89.8334 55.451 88.6327C56.1199 87.432 57.6402 87.0217 58.8412 87.6904C60.0421 88.3592 60.4526 89.879 59.7837 91.0798V91.095C59.3276 91.9005 58.4763 92.3565 57.6098 92.3565C57.1841 92.3565 56.7584 92.2501 56.3784 92.0373ZM205.422 86.7025C204.678 85.5626 205.012 84.0123 206.167 83.2676C207.323 82.5228 208.858 82.8572 209.603 83.9971C210.348 85.1522 210.029 86.7025 208.873 87.4472C208.448 87.7208 207.992 87.8424 207.536 87.8424C206.699 87.8576 205.909 87.4472 205.422 86.7025ZM61.5472 83.4804C60.4222 82.6748 60.179 81.1093 60.9847 80.015C61.7904 78.8903 63.3563 78.6623 64.466 79.4527C65.5758 80.2582 65.819 81.8085 65.0133 82.9332C64.5268 83.6019 63.7667 83.9515 62.9914 83.9515C62.5049 83.9515 61.988 83.7995 61.5472 83.4804ZM199.691 78.8751C198.825 77.8112 198.977 76.2457 200.041 75.3794C201.105 74.5131 202.671 74.665 203.537 75.7138C204.404 76.7777 204.252 78.3584 203.203 79.2247C202.732 79.6047 202.169 79.787 201.622 79.787C200.907 79.7718 200.193 79.4679 199.691 78.8751ZM67.6585 75.5466C66.6552 74.6195 66.5792 73.0388 67.5065 72.0357C68.4339 71.0173 70.0149 70.9565 71.0183 71.8685C72.0368 72.7956 72.0976 74.3763 71.1855 75.3946C70.6838 75.9266 70.0149 76.2001 69.346 76.2001C68.7379 76.2001 68.1298 75.9873 67.6585 75.5466ZM193.109 71.7317C192.12 70.7894 192.105 69.2087 193.063 68.2208C194.005 67.2328 195.587 67.2024 196.575 68.16C197.563 69.1175 197.593 70.6982 196.635 71.6861C196.149 72.1876 195.495 72.446 194.842 72.446C194.218 72.4308 193.595 72.2028 193.109 71.7317ZM74.6212 68.3879C73.7091 67.3392 73.8307 65.7738 74.8645 64.8618C74.8645 64.8618 74.8645 64.8618 74.8645 64.877C75.9134 63.9651 77.4793 64.0867 78.3762 65.1202C79.2883 66.1537 79.1667 67.7192 78.133 68.6311C77.6617 69.0415 77.0688 69.2391 76.5063 69.2391C75.807 69.2239 75.1077 68.9351 74.6212 68.3879ZM185.766 65.3786C184.686 64.5427 184.474 62.9772 185.325 61.8981C186.161 60.8037 187.727 60.6062 188.806 61.4421C189.901 62.278 190.098 63.8435 189.262 64.9226C188.761 65.5762 188.031 65.8953 187.286 65.8953C186.754 65.8953 186.222 65.7282 185.766 65.3786ZM82.344 62.0349C81.5535 60.8949 81.8423 59.3447 82.9825 58.5695C84.1075 57.7792 85.6733 58.068 86.4487 59.2079C87.224 60.3326 86.9351 61.8981 85.795 62.6732C85.3541 62.9772 84.8676 63.1292 84.3811 63.1292C83.6058 63.114 82.8305 62.734 82.344 62.0349ZM177.739 59.907C176.553 59.1927 176.173 57.6728 176.888 56.4873C177.602 55.317 179.122 54.937 180.308 55.6362C181.479 56.3505 181.859 57.8704 181.159 59.0559C180.703 59.831 179.867 60.2566 179.016 60.2566C178.575 60.2718 178.149 60.1502 177.739 59.907ZM90.7509 56.6089C90.0972 55.393 90.5685 53.8883 91.7847 53.2499C92.9857 52.5964 94.4907 53.0676 95.1444 54.2683C95.7981 55.4842 95.3269 56.9888 94.1107 57.6424C93.7306 57.84 93.3353 57.9312 92.9553 57.9312C92.0583 57.9312 91.1918 57.46 90.7509 56.6089ZM169.15 55.3778C167.888 54.8002 167.34 53.3411 167.918 52.0796C168.496 50.8333 169.955 50.271 171.202 50.8485C171.202 50.8485 171.202 50.8485 171.217 50.8485C172.464 51.4261 173.026 52.8852 172.448 54.1467C172.023 55.0738 171.111 55.6058 170.183 55.6058C169.834 55.6058 169.484 55.5298 169.15 55.3778ZM99.7051 52.186C99.2035 50.9093 99.842 49.4654 101.119 48.9639C102.396 48.4623 103.825 49.0855 104.342 50.3622C104.844 51.6389 104.205 53.0828 102.928 53.5843C102.624 53.7059 102.335 53.7515 102.016 53.7515C101.028 53.7667 100.1 53.1588 99.7051 52.186ZM160.089 51.8669C158.782 51.4413 158.067 50.043 158.478 48.7359C158.903 47.4288 160.302 46.7145 161.609 47.1248C162.917 47.5504 163.631 48.9487 163.221 50.2558C162.871 51.3197 161.898 51.9884 160.849 51.9884C160.591 51.9884 160.332 51.958 160.089 51.8669ZM109.131 48.8119C108.781 47.4744 109.571 46.1217 110.894 45.7721C112.232 45.4074 113.585 46.2129 113.95 47.5352C114.299 48.8727 113.509 50.2254 112.171 50.575C111.958 50.6358 111.745 50.6662 111.533 50.6662C110.423 50.6662 109.419 49.9214 109.131 48.8119ZM150.679 49.4198C149.341 49.1615 148.459 47.8392 148.718 46.5017C148.991 45.1642 150.299 44.2675 151.652 44.5562C152.989 44.8298 153.871 46.1369 153.598 47.4744C153.354 48.6599 152.321 49.4806 151.165 49.4806C151.013 49.4654 150.846 49.4502 150.679 49.4198ZM118.86 46.5473C118.678 45.1794 119.605 43.9179 120.973 43.7203C122.326 43.5227 123.603 44.465 123.786 45.8329C123.983 47.1856 123.041 48.4471 121.688 48.6447C121.566 48.6599 121.445 48.6751 121.323 48.6751C120.107 48.6751 119.043 47.7784 118.86 46.5473ZM141.071 48.0824C139.703 47.9608 138.684 46.7601 138.79 45.3922C138.897 44.0091 140.113 43.006 141.481 43.1123C142.849 43.2187 143.868 44.4346 143.762 45.8025C143.655 47.0944 142.561 48.0824 141.268 48.0824C141.208 48.0824 141.132 48.0824 141.071 48.0824ZM128.787 45.4074C128.757 44.0243 129.836 42.8692 131.204 42.8388C132.588 42.8084 133.728 43.8723 133.774 45.2554C133.819 46.6233 132.74 47.7632 131.356 47.824C131.326 47.824 131.311 47.824 131.28 47.824C129.927 47.8088 128.833 46.7449 128.787 45.4074Z" fill="#6C5A4C"/>
<path d="M269.278 91.1512L112.085 52.269L73.9069 206.617L231.1 245.5L269.278 91.1512Z" fill="#F6DAC3"/>
<mask id="mask0_250_6413" style="mask-type:alpha" maskUnits="userSpaceOnUse" x="68" y="47" width="205" height="204">
<path d="M69.0401 99.9476L220.496 47.3222L272.661 197.454L121.205 250.079L69.0401 99.9476Z" fill="#EFEEEA" stroke="black" stroke-width="0.0637019"/>
</mask>
<g mask="url(#mask0_250_6413)">
<path d="M270.958 192.995C262.545 195.985 259.917 188.246 251.504 191.236C243.092 194.226 245.72 201.965 237.308 204.955C228.896 207.945 226.267 200.206 217.854 203.196C209.442 206.186 212.071 213.924 203.658 216.914C195.246 219.904 192.617 212.165 184.204 215.155C175.792 218.145 178.421 225.884 170.008 228.874C161.596 231.864 158.967 224.125 150.554 227.115C142.142 230.105 144.771 237.843 136.34 240.84C127.928 243.829 125.299 236.091 116.869 239.087" stroke="#FBA462" stroke-width="1.59255" stroke-miterlimit="10" stroke-linecap="round"/>
<path d="M265.604 177.588C257.192 180.578 254.563 172.839 246.151 175.829C237.738 178.819 240.367 186.557 231.954 189.547C223.542 192.537 220.913 184.798 212.501 187.788C204.088 190.778 206.717 198.517 198.305 201.507C189.892 204.497 187.263 196.758 178.851 199.748C170.438 202.738 173.067 210.476 164.655 213.466C156.242 216.456 153.613 208.717 145.201 211.707C136.789 214.697 139.417 222.436 130.987 225.432C122.574 228.422 119.946 220.683 111.515 223.679" stroke="#FBA462" stroke-width="1.59255" stroke-miterlimit="10" stroke-linecap="round"/>
<path d="M260.251 162.184C251.839 165.174 249.21 157.435 240.797 160.425C232.385 163.415 235.014 171.154 226.601 174.144C218.189 177.133 215.56 169.395 207.147 172.385C198.735 175.374 201.364 183.113 192.951 186.103C184.539 189.093 181.91 181.354 173.498 184.344C165.085 187.334 167.714 195.073 159.301 198.063C150.889 201.053 148.26 193.314 139.848 196.304C131.435 199.294 134.064 207.032 125.634 210.029C117.239 213.012 114.61 205.273 106.198 208.263" stroke="#FBA462" stroke-width="1.59255" stroke-miterlimit="10" stroke-linecap="round"/>
<path d="M236.167 90.9291C227.721 93.9309 225.082 86.1614 216.636 89.1631C208.19 92.1649 210.829 99.9344 202.383 102.936C193.937 105.938 191.298 98.1684 182.852 101.17C174.406 104.172 177.046 111.941 168.6 114.943C160.154 117.945 157.515 110.175 149.069 113.177C140.623 116.179 143.262 123.948 134.816 126.95C126.371 129.952 123.731 122.182 115.285 125.184C106.84 128.186 109.479 135.955 101.015 138.963C92.569 141.965 89.9297 134.196 81.4658 137.204" stroke="#FBA462" stroke-width="1.59255" stroke-miterlimit="10" stroke-linecap="round"/>
<path d="M230.792 75.4601C222.346 78.4619 219.707 70.6924 211.261 73.6941C202.815 76.6959 205.454 84.4654 197.008 87.4671C188.562 90.4689 185.923 82.6994 177.477 85.7011C169.031 88.7029 171.671 96.4723 163.225 99.4741C154.779 102.476 152.14 94.7063 143.694 97.7081C135.248 100.71 137.887 108.479 129.441 111.481C120.996 114.483 118.356 106.713 109.91 109.715C101.465 112.717 104.104 120.486 95.6399 123.494C87.194 126.496 84.5547 118.727 76.0908 121.735" stroke="#FBA462" stroke-width="1.59255" stroke-miterlimit="10" stroke-linecap="round"/>
<path d="M225.417 59.9959C216.972 62.9976 214.332 55.2281 205.886 58.2299C197.441 61.2316 200.08 69.0012 191.634 72.0029C183.188 75.0047 180.549 67.2352 172.103 70.2369C163.657 73.2387 166.296 81.0082 157.85 84.01C149.405 87.0117 146.765 79.2422 138.319 82.244C129.874 85.2457 132.513 93.0152 124.067 96.017C115.621 99.0188 112.982 91.2493 104.536 94.251C96.0901 97.2528 98.7293 105.022 90.2654 108.03C81.8376 111.026 79.1983 103.256 70.7524 106.258" stroke="#FBA462" stroke-width="1.59255" stroke-miterlimit="10" stroke-linecap="round"/>
<path d="M253.874 141.891C245.428 144.893 242.789 137.123 234.343 140.125C225.897 143.127 228.537 150.896 220.091 153.898C211.645 156.9 209.006 149.13 200.56 152.132C192.114 155.134 194.753 162.903 186.307 165.905C177.862 168.907 175.222 161.137 166.776 164.139C158.331 167.141 160.97 174.91 152.524 177.912C144.078 180.914 141.439 173.144 132.993 176.146C124.547 179.148 127.186 186.917 118.722 189.925C110.277 192.927 107.637 185.158 99.1733 188.166" stroke="#FBA462" stroke-width="1.59255" stroke-miterlimit="10" stroke-linecap="round"/>
<path d="M248.5 126.422C240.054 129.424 237.414 121.655 228.969 124.656C220.523 127.658 223.162 135.428 214.716 138.429C206.27 141.431 203.631 133.662 195.185 136.663C186.739 139.665 189.379 147.435 180.933 150.436C172.487 153.438 169.847 145.669 161.402 148.67C152.956 151.672 155.595 159.441 147.149 162.443C138.703 165.445 136.064 157.675 127.618 160.677C119.172 163.679 121.812 171.448 113.348 174.457C104.902 177.458 102.262 169.689 93.7986 172.697" stroke="#FBA462" stroke-width="1.59255" stroke-miterlimit="10" stroke-linecap="round"/>
<path d="M243.125 110.958C234.679 113.959 232.04 106.19 223.594 109.192C215.148 112.193 217.787 119.963 209.341 122.965C200.896 125.966 198.256 118.197 189.81 121.199C181.365 124.2 184.004 131.97 175.558 134.972C167.112 137.973 164.473 130.204 156.027 133.206C147.581 136.207 150.22 143.977 141.774 146.979C133.329 149.98 130.689 142.211 122.243 145.213C113.798 148.214 116.437 155.984 107.973 158.992C99.5451 161.987 96.9058 154.218 88.46 157.22" stroke="#FBA462" stroke-width="1.59255" stroke-miterlimit="10" stroke-linecap="round"/>
</g>
</svg>
