<svg width="51" height="42" viewBox="0 0 51 42" fill="none" xmlns="http://www.w3.org/2000/svg">
<path d="M4.99319 41.2144C4.46546 40.6906 4.20159 40.0863 4.20159 39.4014C4.20159 38.7165 4.46546 38.1122 4.99319 37.5885L19.7292 22.964C19.9728 22.7223 20.2366 22.5507 20.5208 22.4492C20.805 22.3492 21.1094 22.2993 21.4342 22.2993C21.759 22.2993 22.0634 22.3492 22.3476 22.4492C22.6318 22.5507 22.8956 22.7223 23.1392 22.964L31.177 30.941L46.7655 13.5367C47.2121 13.013 47.791 12.7511 48.5022 12.7511C49.2118 12.7511 49.8102 12.9928 50.2973 13.4763C50.7438 13.9194 50.9777 14.4536 50.9988 15.0789C51.0183 15.7026 50.8047 16.2561 50.3582 16.7396L32.882 36.259C32.6384 36.541 32.3648 36.7521 32.0612 36.8923C31.7559 37.0341 31.4409 37.105 31.1161 37.105C30.7914 37.105 30.4772 37.0446 30.1735 36.9237C29.8682 36.8029 29.5938 36.6216 29.3502 36.3799L21.4342 28.5237L8.64675 41.2144C8.11901 41.7381 7.51009 42 6.81997 42C6.12986 42 5.52093 41.7381 4.99319 41.2144ZM5.60212 25.623C5.39914 25.623 5.19617 25.5723 4.99319 25.4707C4.79022 25.3708 4.62784 25.2 4.50605 24.9583L3.2882 22.3597L0.669819 21.1511C0.426248 21.0302 0.254125 20.8691 0.153449 20.6676C0.0511497 20.4662 0 20.2647 0 20.0633C0 19.8619 0.0511497 19.6604 0.153449 19.459C0.254125 19.2576 0.426248 19.0964 0.669819 18.9755L3.2882 17.7669L4.50605 15.1683C4.62784 14.9266 4.79022 14.755 4.99319 14.6535C5.19617 14.5536 5.39914 14.5036 5.60212 14.5036C5.8051 14.5036 6.00807 14.5536 6.21105 14.6535C6.41402 14.755 6.5764 14.9266 6.69819 15.1683L7.91604 17.7669L10.5344 18.9755C10.981 19.177 11.2042 19.5396 11.2042 20.0633C11.2042 20.5871 10.981 20.9496 10.5344 21.1511L7.91604 22.3597L6.69819 24.9583C6.5764 25.2 6.41402 25.3708 6.21105 25.4707C6.00807 25.5723 5.8051 25.623 5.60212 25.623ZM32.3949 20.7885C32.1919 20.7885 31.9889 20.7377 31.7859 20.6362C31.583 20.5363 31.4206 20.3655 31.2988 20.1237L30.081 17.5252L27.4626 16.3165C27.219 16.1957 27.0469 16.0345 26.9462 15.8331C26.8439 15.6317 26.7927 15.4302 26.7927 15.2288C26.7927 15.0273 26.8439 14.8259 26.9462 14.6245C27.0469 14.423 27.219 14.2619 27.4626 14.141L30.081 12.9324L31.2988 10.3338C31.4206 10.0921 31.583 9.92046 31.7859 9.81894C31.9889 9.71902 32.1919 9.66906 32.3949 9.66906C32.5978 9.66906 32.8008 9.71902 33.0038 9.81894C33.2068 9.92046 33.3692 10.0921 33.4909 10.3338L34.7088 12.9324L37.3272 14.141C37.5707 14.2619 37.7437 14.423 37.846 14.6245C37.9467 14.8259 37.997 15.0273 37.997 15.2288C37.997 15.4302 37.9467 15.6317 37.846 15.8331C37.7437 16.0345 37.5707 16.1957 37.3272 16.3165L34.7088 17.5252L33.4909 20.1237C33.3692 20.3655 33.2068 20.5363 33.0038 20.6362C32.8008 20.7377 32.5978 20.7885 32.3949 20.7885ZM16.5628 13.5367C16.3598 13.5367 16.1568 13.4763 15.9539 13.3554C15.7509 13.2345 15.5885 13.0532 15.4667 12.8115L13.8835 9.42734L10.4735 7.85611C10.23 7.73525 10.0473 7.5741 9.9255 7.37266C9.80371 7.17122 9.74282 6.96978 9.74282 6.76835C9.74282 6.56691 9.80371 6.36547 9.9255 6.16403C10.0473 5.96259 10.23 5.80144 10.4735 5.68058L13.8835 4.10935L15.4667 0.72518C15.5885 0.483453 15.7509 0.302158 15.9539 0.181295C16.1568 0.0604318 16.3598 0 16.5628 0C16.7658 0 16.9687 0.0604318 17.1717 0.181295C17.3747 0.302158 17.5371 0.483453 17.6589 0.72518L19.2421 4.10935L22.6521 5.68058C22.8956 5.80144 23.0783 5.96259 23.2001 6.16403C23.3219 6.36547 23.3828 6.56691 23.3828 6.76835C23.3828 6.96978 23.3219 7.17122 23.2001 7.37266C23.0783 7.5741 22.8956 7.73525 22.6521 7.85611L19.2421 9.42734L17.6589 12.8115C17.5371 13.0532 17.3747 13.2345 17.1717 13.3554C16.9687 13.4763 16.7658 13.5367 16.5628 13.5367Z" fill="black"/>
</svg>
