<svg width="33" height="34" viewBox="0 0 33 34" fill="none" xmlns="http://www.w3.org/2000/svg">
<path d="M10.4931 17.439C10.4931 17.439 12.6261 19.8768 16.1812 19.8768C19.7362 19.8768 21.8692 17.439 21.8692 17.439M20.6504 9.31323H20.6666M11.712 9.31323H11.7282M8.05534 26.3774V30.173C8.05534 31.039 8.05534 31.472 8.23285 31.6943C8.38723 31.8878 8.62133 32.0003 8.8688 32C9.15334 31.9997 9.49145 31.7292 10.1677 31.1882L14.0444 28.0868C14.8364 27.4533 15.2323 27.1365 15.6733 26.9112C16.0645 26.7114 16.4809 26.5653 16.9112 26.477C17.3962 26.3774 17.9033 26.3774 18.9175 26.3774H23.0068C25.7374 26.3774 27.1026 26.3774 28.1456 25.846C29.0629 25.3786 29.8088 24.6328 30.2762 23.7154C30.8076 22.6725 30.8076 21.3072 30.8076 18.5767V9.80078C30.8076 7.07025 30.8076 5.70499 30.2762 4.66206C29.8088 3.74468 29.0629 2.99883 28.1456 2.5314C27.1026 2 25.7374 2 23.0068 2H9.35547C6.62494 2 5.25968 2 4.21675 2.5314C3.29937 2.99883 2.55351 3.74468 2.08608 4.66206C1.55469 5.70499 1.55469 7.07025 1.55469 9.80078V19.8768C1.55469 21.3881 1.55469 22.1438 1.72082 22.7638C2.17164 24.4463 3.48581 25.7605 5.16831 26.2113C5.78831 26.3774 6.54398 26.3774 8.05534 26.3774ZM21.4629 9.31323C21.4629 9.76201 21.0991 10.1258 20.6504 10.1258C20.2016 10.1258 19.8378 9.76201 19.8378 9.31323C19.8378 8.86446 20.2016 8.50065 20.6504 8.50065C21.0991 8.50065 21.4629 8.86446 21.4629 9.31323ZM12.5245 9.31323C12.5245 9.76201 12.1607 10.1258 11.712 10.1258C11.2632 10.1258 10.8994 9.76201 10.8994 9.31323C10.8994 8.86446 11.2632 8.50065 11.712 8.50065C12.1607 8.50065 12.5245 8.86446 12.5245 9.31323Z" stroke="#EF5A3C" stroke-width="2.5" stroke-linecap="round" stroke-linejoin="round"/>
</svg>
