<svg width="122" height="121" viewBox="0 0 122 121" fill="none" xmlns="http://www.w3.org/2000/svg">
<g filter="url(#filter0_d_112_5479)">
<circle cx="61" cy="58.5" r="54.5" fill="#FBF9F7"/>
</g>
<g filter="url(#filter1_d_112_5479)">
<g filter="url(#filter2_d_112_5479)">
<rect x="24.5" y="32" width="72" height="50" rx="2" fill="#FDFBF5"/>
<rect x="25" y="32.5" width="71" height="49" rx="1.5" stroke="#BE8A64"/>
</g>
<path d="M25.5 34C25.5 33.4477 25.9477 33 26.5 33H94.5C95.0523 33 95.5 33.4477 95.5 34V43H25.5V34Z" fill="#FFEEE1"/>
<circle cx="31.9008" cy="37.6508" r="1.225" fill="#CE7636" fill-opacity="0.7"/>
<circle cx="36.8012" cy="37.6508" r="1.225" fill="#CE7636" fill-opacity="0.5"/>
<circle cx="41.5258" cy="37.6508" r="1.225" fill="#CE7636" fill-opacity="0.4"/>
</g>
<rect x="17.5" y="50" width="86" height="17" rx="3" fill="#FFC8A9"/>
<rect x="20" y="52" width="81" height="13" rx="3" fill="white"/>
<path d="M94.5211 71.899L94.1676 72.2526L92.7526 73.6676L92.399 74.0211L92.0454 73.6675L88.0726 69.6938C86.4559 70.8682 84.5052 71.5029 82.4993 71.5M94.5211 71.899L92 61.9993C91.9996 56.7555 87.7439 52.5 82.5 52.5C77.2559 52.5 73 56.7559 73 62C73 67.2439 77.2555 71.4996 82.4993 71.5M94.5211 71.899L94.1675 71.5454M94.5211 71.899L94.1675 71.5454M82.4993 71.5L82.5 71V71.5C82.4998 71.5 82.4995 71.5 82.4993 71.5ZM94.1675 71.5454L90.1938 67.5726M94.1675 71.5454L90.1938 67.5726M90.1938 67.5726C91.368 65.9561 92.0027 64.0056 92 62L90.1938 67.5726ZM89 62L89 62.0008C89.0027 63.6896 88.3456 65.3126 87.1689 66.5239L87.0239 66.6689C85.8126 67.8456 84.1896 68.5027 82.5008 68.5H82.5C78.9091 68.5 76 65.5909 76 62C76 58.4091 78.9091 55.5 82.5 55.5C86.0909 55.5 89 58.4091 89 62Z" fill="#E86F18" stroke="white"/>
<path d="M25 63V54H26V63H25Z" fill="#CE7636"/>
<defs>
<filter id="filter0_d_112_5479" x="0.5" y="0" width="121" height="121" filterUnits="userSpaceOnUse" color-interpolation-filters="sRGB">
<feFlood flood-opacity="0" result="BackgroundImageFix"/>
<feColorMatrix in="SourceAlpha" type="matrix" values="0 0 0 0 0 0 0 0 0 0 0 0 0 0 0 0 0 0 127 0" result="hardAlpha"/>
<feOffset dy="2"/>
<feGaussianBlur stdDeviation="3"/>
<feComposite in2="hardAlpha" operator="out"/>
<feColorMatrix type="matrix" values="0 0 0 0 0 0 0 0 0 0 0 0 0 0 0 0 0 0 0.05 0"/>
<feBlend mode="normal" in2="BackgroundImageFix" result="effect1_dropShadow_112_5479"/>
<feBlend mode="normal" in="SourceGraphic" in2="effect1_dropShadow_112_5479" result="shape"/>
</filter>
<filter id="filter1_d_112_5479" x="21.7" y="29.6002" width="77.9008" height="55.8998" filterUnits="userSpaceOnUse" color-interpolation-filters="sRGB">
<feFlood flood-opacity="0" result="BackgroundImageFix"/>
<feColorMatrix in="SourceAlpha" type="matrix" values="0 0 0 0 0 0 0 0 0 0 0 0 0 0 0 0 0 0 127 0" result="hardAlpha"/>
<feOffset dy="0.7"/>
<feGaussianBlur stdDeviation="1.4"/>
<feComposite in2="hardAlpha" operator="out"/>
<feColorMatrix type="matrix" values="0 0 0 0 0 0 0 0 0 0 0 0 0 0 0 0 0 0 0.05 0"/>
<feBlend mode="normal" in2="BackgroundImageFix" result="effect1_dropShadow_112_5479"/>
<feBlend mode="normal" in="SourceGraphic" in2="effect1_dropShadow_112_5479" result="shape"/>
</filter>
<filter id="filter2_d_112_5479" x="20.5" y="30" width="80" height="58" filterUnits="userSpaceOnUse" color-interpolation-filters="sRGB">
<feFlood flood-opacity="0" result="BackgroundImageFix"/>
<feColorMatrix in="SourceAlpha" type="matrix" values="0 0 0 0 0 0 0 0 0 0 0 0 0 0 0 0 0 0 127 0" result="hardAlpha"/>
<feOffset dy="2"/>
<feGaussianBlur stdDeviation="2"/>
<feComposite in2="hardAlpha" operator="out"/>
<feColorMatrix type="matrix" values="0 0 0 0 0 0 0 0 0 0 0 0 0 0 0 0 0 0 0.1 0"/>
<feBlend mode="normal" in2="BackgroundImageFix" result="effect1_dropShadow_112_5479"/>
<feBlend mode="normal" in="SourceGraphic" in2="effect1_dropShadow_112_5479" result="shape"/>
</filter>
</defs>
</svg>
