<svg width="38" height="40" viewBox="0 0 38 40" fill="none" xmlns="http://www.w3.org/2000/svg">
<path d="M18 38H4C3.46957 38 2.96086 37.7893 2.58579 37.4142C2.21071 37.0391 2 36.5304 2 36V4C2 3.46957 2.21071 2.96086 2.58579 2.58579C2.96086 2.21071 3.46957 2 4 2H32C32.5304 2 33.0391 2.21071 33.4142 2.58579C33.7893 2.96086 34 3.46957 34 4V15.5M10 10H26M31.636 23C34.046 23 36 24.88 36 27.2C36 30.22 33.09 32.8 31.636 34.2C30.666 35.133 29.455 36.067 28 37C26.546 36.067 25.333 35.133 24.364 34.2C22.909 32.8 20 30.22 20 27.2C20 24.88 21.954 23 24.364 23C25.881 23 27.218 23.746 28 24.878C28.409 24.2942 28.9534 23.8183 29.5867 23.4912C30.22 23.1641 30.9232 22.9956 31.636 23Z" stroke="black" stroke-width="4" stroke-linecap="round" stroke-linejoin="round"/>
</svg>
