<svg width="35" height="32" viewBox="0 0 35 32" fill="none" xmlns="http://www.w3.org/2000/svg">
<path d="M33.0459 1.63437L14.3576 16.5394M2.51541 8.99426L32.5781 1.32974C32.6866 1.30168 32.8009 1.30563 32.9072 1.34114C33.0134 1.37664 33.1072 1.44216 33.1771 1.5298C33.2469 1.61743 33.2899 1.72343 33.3009 1.83498C33.3118 1.94653 33.2902 2.05887 33.2387 2.15842L19.0758 29.7664C19.02 29.8711 18.9336 29.9561 18.8281 30.0101C18.7225 30.0642 18.603 30.0846 18.4856 30.0686C18.3681 30.0527 18.2584 30.0011 18.1711 29.921C18.0838 29.8408 18.0231 29.7358 17.9973 29.6201L14.4888 17.0982C14.4513 16.9221 14.3733 16.7571 14.2611 16.6164C14.1489 16.4756 14.0055 16.3629 13.8422 16.2871L2.41753 10.0828C2.30898 10.0325 2.2186 9.94996 2.15877 9.84637C2.09894 9.74278 2.07258 9.62322 2.0833 9.50407C2.09401 9.38491 2.14128 9.27197 2.21863 9.18072C2.29598 9.08946 2.39963 9.02434 2.51541 8.99426Z" stroke="black" stroke-width="2.21875" stroke-linecap="round" stroke-linejoin="round"/>
</svg>
