<svg width="43" height="44" viewBox="0 0 43 44" fill="none" xmlns="http://www.w3.org/2000/svg">
<path d="M43 6.8162C42.9952 5.22226 42.3706 3.69277 41.2584 2.55164C40.1462 1.41051 38.6338 0.747357 37.0414 0.702615C35.4491 0.657873 33.9019 1.23506 32.7274 2.31194C31.553 3.38882 30.8436 4.88083 30.7494 6.47199L11.6494 10.2937C11.2028 9.36498 10.5294 8.56387 9.69158 7.96442C8.8537 7.36497 7.87833 6.98654 6.85561 6.86409C5.83289 6.74164 4.79583 6.87913 3.84027 7.26386C2.88471 7.64858 2.04149 8.26812 1.38854 9.06522C0.73559 9.86232 0.293985 10.8112 0.104538 11.8243C-0.0849089 12.8374 -0.0160841 13.8819 0.304651 14.8613C0.625387 15.8407 1.18768 16.7234 1.93957 17.4278C2.69146 18.1322 3.60867 18.6356 4.60644 18.8915V31.6214C3.55905 31.8904 2.60143 32.4319 1.83078 33.191C1.06014 33.95 0.503907 34.8996 0.218541 35.9432C-0.0668246 36.9869 -0.0711635 38.0875 0.205964 39.1334C0.483092 40.1793 1.03182 41.1332 1.79646 41.8983C2.56109 42.6634 3.51441 43.2125 4.55965 43.4897C5.6049 43.767 6.70485 43.7627 7.74788 43.4772C8.7909 43.1916 9.73986 42.6351 10.4984 41.8639C11.257 41.0928 11.7982 40.1346 12.0671 39.0866H24.7892C25.0445 40.0856 25.5474 41.0041 26.2514 41.7571C26.9555 42.5102 27.8379 43.0734 28.8172 43.3948C29.7964 43.7161 30.8408 43.7852 31.8538 43.5957C32.8668 43.4062 33.8156 42.9641 34.6127 42.3105C35.4097 41.6568 36.0291 40.8125 36.4137 39.8558C36.7983 38.8991 36.9355 37.8609 36.8128 36.837C36.6901 35.8132 36.3114 34.8368 35.7116 33.9982C35.1119 33.1597 34.3105 32.4859 33.3816 32.0393L37.201 12.9276C38.7646 12.8421 40.2363 12.1614 41.3144 11.0252C42.3926 9.8889 42.9957 8.38305 43 6.8162ZM36.857 3.74284C37.4645 3.74284 38.0584 3.92309 38.5635 4.26079C39.0686 4.5985 39.4622 5.07849 39.6947 5.64008C39.9272 6.20166 39.988 6.81961 39.8695 7.41579C39.751 8.01196 39.4585 8.55959 39.0289 8.9894C38.5993 9.41922 38.0521 9.71193 37.4562 9.83052C36.8604 9.94911 36.2429 9.88824 35.6816 9.65563C35.1204 9.42301 34.6407 9.02909 34.3032 8.52368C33.9657 8.01826 33.7855 7.42406 33.7855 6.8162C33.7864 6.00135 34.1102 5.2201 34.6861 4.6439C35.2619 4.06771 36.0427 3.74365 36.857 3.74284ZM3.0707 12.9629C3.0707 12.3551 3.25084 11.7609 3.58834 11.2555C3.92584 10.7501 4.40554 10.3561 4.96678 10.1235C5.52802 9.8909 6.14559 9.83004 6.7414 9.94863C7.33721 10.0672 7.8845 10.3599 8.31405 10.7897C8.74361 11.2196 9.03614 11.7672 9.15465 12.3634C9.27317 12.9595 9.21234 13.5775 8.97987 14.1391C8.74739 14.7007 8.35371 15.1806 7.84861 15.5184C7.34351 15.8561 6.74967 16.0363 6.14219 16.0363C5.32783 16.0355 4.54706 15.7114 3.97122 15.1352C3.39538 14.5591 3.07151 13.7778 3.0707 12.9629ZM6.14219 40.6233C5.5347 40.6233 4.94086 40.443 4.43576 40.1053C3.93066 39.7676 3.53698 39.2876 3.3045 38.726C3.07203 38.1644 3.0112 37.5465 3.12972 36.9503C3.24823 36.3541 3.54076 35.8065 3.97032 35.3767C4.39987 34.9469 4.94716 34.6542 5.54297 34.5356C6.13878 34.417 6.75635 34.4779 7.31759 34.7105C7.87883 34.9431 8.35853 35.337 8.69603 35.8424C9.03353 36.3478 9.21367 36.942 9.21367 37.5499C9.21286 38.3647 8.88899 39.146 8.31315 39.7222C7.73732 40.2984 6.95654 40.6224 6.14219 40.6233ZM24.7892 36.0132H12.0671C11.792 34.9567 11.2402 33.9927 10.4687 33.2207C9.69716 32.4487 8.73379 31.8966 7.67793 31.6214V18.8915C8.9327 18.5649 10.0515 17.8482 10.8731 16.8446C11.6947 15.8411 12.1768 14.6024 12.2498 13.3072L31.3499 9.48542C31.9518 10.7243 32.9516 11.7254 34.1894 12.3283L30.3701 31.4385C29.0756 31.5116 27.8377 31.9939 26.8348 32.8161C25.8318 33.6382 25.1156 34.7577 24.7892 36.0132ZM30.7141 40.6233C30.1066 40.6233 29.5127 40.443 29.0076 40.1053C28.5025 39.7676 28.1089 39.2876 27.8764 38.726C27.6439 38.1644 27.5831 37.5465 27.7016 36.9503C27.8201 36.3541 28.1126 35.8065 28.5422 35.3767C28.9717 34.9469 29.519 34.6542 30.1148 34.5356C30.7107 34.417 31.3282 34.4779 31.8895 34.7105C32.4507 34.9431 32.9304 35.337 33.2679 35.8424C33.6054 36.3478 33.7855 36.942 33.7855 37.5499C33.7847 38.3647 33.4609 39.146 32.885 39.7222C32.3092 40.2984 31.5284 40.6224 30.7141 40.6233Z" fill="black"/>
</svg>
