<svg width="47" height="48" viewBox="0 0 47 48" fill="none" xmlns="http://www.w3.org/2000/svg">
<path d="M19.9167 2.7002H5.58333C4.63297 2.7002 3.72154 3.07772 3.04953 3.74973C2.37753 4.42173 2 5.33317 2 6.28353V32.5613C2 33.5117 2.37753 34.4231 3.04953 35.0951C3.72154 35.7671 4.63297 36.1446 5.58333 36.1446H41.4167C42.367 36.1446 43.2785 35.7671 43.9505 35.0951C44.6225 34.4231 45 33.5117 45 32.5613V20.6169M23.5 36.1446V45.7002M33.0556 2.7002L28.2778 7.47797L33.0556 12.2558M40.2222 2.7002L45 7.47797L40.2222 12.2558M11.5556 45.7002H35.4444" stroke="black" stroke-width="3.5" stroke-linecap="round" stroke-linejoin="round"/>
</svg>
