<svg width="34" height="34" viewBox="0 0 34 34" fill="none" xmlns="http://www.w3.org/2000/svg">
<path d="M14.5729 2H4.51458C3.84767 2 3.20808 2.26493 2.7365 2.73651C2.26493 3.20808 2 3.84768 2 4.51459V22.9549C2 23.6218 2.26493 24.2614 2.7365 24.733C3.20808 25.2046 3.84767 25.4695 4.51458 25.4695H29.6604C30.3273 25.4695 30.9669 25.2046 31.4385 24.733C31.9101 24.2614 32.175 23.6218 32.175 22.9549V14.5729M17.0875 25.4695V32.175M23.793 2L20.4403 5.35278L23.793 8.70557M28.8222 2L32.175 5.35278L28.8222 8.70557M8.70555 32.175H25.4694" stroke="#EA5436" stroke-width="2.6625" stroke-linecap="round" stroke-linejoin="round"/>
</svg>
