<svg width="32" height="32" viewBox="0 0 32 32" fill="none" xmlns="http://www.w3.org/2000/svg">
<path d="M22.2995 4.60196L22.6352 4.53483L22.6554 4.19306C22.7166 3.15945 23.1777 2.19026 23.9411 1.49073C24.7045 0.791194 25.7102 0.416259 26.7452 0.445323C27.7802 0.474386 28.7632 0.905167 29.4861 1.64644C30.2088 2.38741 30.6147 3.38046 30.6182 4.41543C30.615 5.43282 30.2231 6.41053 29.5225 7.14837C28.8217 7.88652 27.8651 8.32868 26.8487 8.38423L26.5052 8.40301L26.4378 8.74031L23.6788 22.5376L23.6112 22.8754L23.9217 23.0246C24.5255 23.3147 25.0463 23.7524 25.4362 24.2971C25.826 24.8418 26.0721 25.476 26.1519 26.1411C26.2316 26.8061 26.1424 27.4806 25.8925 28.102C25.6425 28.7235 25.2399 29.2719 24.7219 29.6965C24.2038 30.1211 23.5871 30.4082 22.9287 30.5314C22.2702 30.6545 21.5914 30.6096 20.9549 30.4008C20.3185 30.1921 19.7449 29.8262 19.2873 29.3371C18.8297 28.8479 18.5028 28.2513 18.3369 27.6023L18.2515 27.2685H17.907H8.7169H8.37267L8.28708 27.6019C8.11233 28.2827 7.76057 28.9051 7.26751 29.406C6.77446 29.9069 6.15766 30.2685 5.47973 30.4539C4.8018 30.6394 4.08686 30.6422 3.40748 30.4621C2.7281 30.282 2.10848 29.9253 1.61149 29.4283C1.1145 28.9313 0.757838 28.3117 0.577713 27.6323C0.397588 26.953 0.400408 26.238 0.585888 25.5601C0.771367 24.8821 1.1329 24.2653 1.6338 23.7723C2.13469 23.2792 2.75712 22.9275 3.43789 22.7527L3.77131 22.6671V22.3229V13.1328V12.7884L3.43772 12.703C2.78922 12.5368 2.19307 12.2098 1.70438 11.7522C1.21569 11.2947 0.850222 10.7213 0.641759 10.0851C0.433297 9.44895 0.388564 8.77049 0.511695 8.11244C0.634827 7.4544 0.921849 6.83802 1.34623 6.32026C1.77062 5.8025 2.31867 5.40007 2.93974 5.15018C3.56081 4.90028 4.23485 4.81097 4.89957 4.8905C5.56429 4.97004 6.19823 5.21586 6.74281 5.60523C7.28739 5.9946 7.72502 6.51497 8.01528 7.11824L8.16455 7.4285L8.50216 7.36098L22.2995 4.60196ZM26.6244 1.75282L26.624 1.75282C25.9182 1.75353 25.2415 2.03422 24.7424 2.5333C24.2433 3.03238 23.9626 3.70908 23.9619 4.41488V4.41533C23.9619 4.94192 24.1181 5.45669 24.4106 5.89454C24.7032 6.33238 25.119 6.67364 25.6055 6.87516C26.092 7.07668 26.6274 7.12941 27.1439 7.02667C27.6603 6.92394 28.1347 6.67036 28.5071 6.298C28.8794 5.92565 29.133 5.45123 29.2358 4.93476C29.3385 4.41828 29.2858 3.88294 29.0843 3.39643C28.8827 2.90992 28.5415 2.49409 28.1036 2.20153C27.6658 1.90898 27.151 1.75282 26.6244 1.75282ZM1.77443 8.85284L1.77443 8.85328C1.77514 9.55909 2.05583 10.2358 2.55491 10.7349C3.05399 11.2339 3.73068 11.5146 4.43649 11.5153H4.43693C4.96352 11.5153 5.47829 11.3592 5.91614 11.0666C6.35398 10.7741 6.69524 10.3582 6.89676 9.87173C7.09828 9.38523 7.15101 8.84988 7.04827 8.33341C6.94554 7.81693 6.69196 7.34252 6.3196 6.97016C5.94725 6.59781 5.47284 6.34422 4.95636 6.24149C4.43989 6.13876 3.90455 6.19148 3.41804 6.393C2.93153 6.59452 2.5157 6.93578 2.22314 7.37363C1.93059 7.81148 1.77443 8.32625 1.77443 8.85284ZM7.09943 26.6033V26.6029C7.09943 26.0763 6.94328 25.5615 6.65072 25.1237C6.35816 24.6858 5.94234 24.3446 5.45583 24.143C4.96932 23.9415 4.43398 23.8888 3.9175 23.9915C3.40103 24.0943 2.92662 24.3479 2.55426 24.7202C2.1819 25.0926 1.92832 25.567 1.82559 26.0835C1.72286 26.5999 1.77558 27.1353 1.9771 27.6218C2.17862 28.1083 2.51988 28.5241 2.95773 28.8167C3.39557 29.1092 3.91034 29.2654 4.43693 29.2654H4.43737C5.14318 29.2647 5.81988 28.984 6.31895 28.4849C6.81803 27.9858 7.09873 27.3091 7.09943 26.6033ZM17.907 25.9373H18.25L18.3364 25.6052C18.5485 24.7897 19.014 24.0626 19.6658 23.5287C20.3177 22.9947 21.1222 22.6814 21.9634 22.6339L22.3062 22.6146L22.3736 22.2779L25.1326 8.48168L25.1998 8.14566L24.8917 7.99568C24.0868 7.60388 23.4367 6.95338 23.0453 6.14831L22.8954 5.83995L22.5592 5.90718L8.7619 8.6662L8.42521 8.73353L8.40587 9.07634C8.3584 9.91762 8.04512 10.7221 7.51114 11.3739C6.97717 12.0257 6.25007 12.4912 5.4346 12.7034L5.10256 12.7897V13.1328V22.3229V22.6659L5.43443 22.7523C6.12076 22.9311 6.74698 23.2898 7.24849 23.7913C7.75001 24.2928 8.10867 24.919 8.28748 25.6054L8.37395 25.9373H8.7169H17.907ZM22.1869 29.2654H22.1874C22.8932 29.2647 23.5699 28.984 24.0689 28.4849C24.568 27.9858 24.8487 27.3091 24.8494 26.6033V26.6029C24.8494 26.0763 24.6933 25.5615 24.4007 25.1237C24.1082 24.6858 23.6923 24.3446 23.2058 24.143C22.7193 23.9415 22.184 23.8888 21.6675 23.9915C21.151 24.0943 20.6766 24.3479 20.3043 24.7202C19.9319 25.0926 19.6783 25.567 19.5756 26.0835C19.4728 26.5999 19.5256 27.1353 19.7271 27.6218C19.9286 28.1083 20.2699 28.5241 20.7077 28.8167C21.1456 29.1092 21.6603 29.2654 22.1869 29.2654Z" fill="#333333" stroke="black" stroke-width="0.887501"/>
</svg>
