<svg width="40" height="41" viewBox="0 0 40 41" fill="none" xmlns="http://www.w3.org/2000/svg">
<path d="M40 6.68736C39.9955 5.20462 39.4145 3.78184 38.3799 2.72032C37.3453 1.65881 35.9384 1.04192 34.4571 1.0003C32.9759 0.958678 31.5366 1.4956 30.4441 2.49734C29.3516 3.49909 28.6917 4.88701 28.6041 6.36716L10.8366 9.92226C10.4212 9.05831 9.79484 8.31309 9.01542 7.75546C8.236 7.19784 7.32868 6.84581 6.37731 6.7319C5.42595 6.618 4.46124 6.7459 3.57234 7.10378C2.68345 7.46166 1.89906 8.03798 1.29166 8.77946C0.68427 9.52095 0.273474 10.4037 0.0972446 11.3461C-0.0789851 12.2884 -0.0149619 13.2601 0.283397 14.1711C0.581755 15.0822 1.10482 15.9033 1.80425 16.5586C2.50368 17.2139 3.3569 17.6822 4.28506 17.9202V29.7619C3.31074 30.0122 2.41993 30.5159 1.70305 31.222C0.986177 31.9281 0.468751 32.8114 0.203294 33.7823C-0.0621624 34.7531 -0.0661986 35.7769 0.191595 36.7499C0.449388 37.7228 0.959834 38.6101 1.67112 39.3218C2.38241 40.0336 3.26922 40.5443 4.24154 40.8023C5.21386 41.0602 6.23707 41.0562 7.20733 40.7906C8.17758 40.525 9.06034 40.0072 9.76599 39.2899C10.4716 38.5726 10.9751 37.6812 11.2252 36.7063H23.0597C23.2972 37.6356 23.765 38.4901 24.4199 39.1906C25.0749 39.891 25.8957 40.415 26.8067 40.7139C27.7176 41.0129 28.6891 41.0772 29.6314 40.9009C30.5737 40.7246 31.4564 40.3134 32.1978 39.7053C32.9393 39.0972 33.5155 38.3119 33.8732 37.4219C34.2309 36.532 34.3586 35.5661 34.2445 34.6137C34.1303 33.6613 33.778 32.753 33.2201 31.973C32.6622 31.1929 31.9168 30.5662 31.0527 30.1507L34.6056 12.3724C36.0601 12.2928 37.4291 11.6597 38.432 10.6027C39.435 9.54568 39.996 8.14489 40 6.68736ZM34.2856 3.82841C34.8507 3.82841 35.4031 3.99608 35.873 4.31023C36.3428 4.62437 36.7091 5.07088 36.9253 5.59329C37.1416 6.11569 37.1982 6.69053 37.0879 7.24511C36.9777 7.79969 36.7055 8.30911 36.306 8.70894C35.9064 9.10877 35.3973 9.38106 34.843 9.49137C34.2888 9.60168 33.7143 9.54507 33.1922 9.32868C32.6701 9.11229 32.2239 8.74585 31.9099 8.2757C31.596 7.80555 31.4284 7.2528 31.4284 6.68736C31.4292 5.92935 31.7304 5.20261 32.2661 4.66661C32.8018 4.13062 33.5281 3.82917 34.2856 3.82841ZM2.85647 12.4053C2.85647 11.8398 3.02404 11.2871 3.33799 10.8169C3.65194 10.3468 4.09818 9.98032 4.62026 9.76393C5.14234 9.54754 5.71683 9.49093 6.27107 9.60124C6.82531 9.71155 7.33442 9.98384 7.734 10.3837C8.13359 10.7835 8.40571 11.2929 8.51596 11.8475C8.6262 12.4021 8.56962 12.9769 8.35337 13.4993C8.13711 14.0217 7.7709 14.4682 7.30103 14.7824C6.83117 15.0965 6.27876 15.2642 5.71366 15.2642C4.95612 15.2634 4.22982 14.962 3.69415 14.426C3.15849 13.89 2.85722 13.1633 2.85647 12.4053ZM5.71366 38.1358C5.14856 38.1358 4.59615 37.9681 4.12629 37.654C3.65643 37.3398 3.29021 36.8933 3.07396 36.3709C2.8577 35.8485 2.80112 35.2737 2.91137 34.7191C3.02161 34.1645 3.29373 33.6551 3.69332 33.2553C4.0929 32.8554 4.60201 32.5831 5.15625 32.4728C5.71049 32.3625 6.28498 32.4191 6.80706 32.6355C7.32915 32.8519 7.77538 33.2183 8.08933 33.6885C8.40328 34.1586 8.57086 34.7114 8.57086 35.2768C8.5701 36.0348 8.26883 36.7616 7.73317 37.2976C7.1975 37.8336 6.4712 38.135 5.71366 38.1358ZM23.0597 33.8474H11.2252C10.9693 32.8646 10.456 31.9678 9.73832 31.2497C9.02062 30.5316 8.12446 30.018 7.14226 29.7619V17.9202C8.30949 17.6164 9.35022 16.9497 10.1145 16.0161C10.8788 15.0826 11.3273 13.9304 11.3952 12.7255L29.1627 9.17035C29.7226 10.3228 30.6527 11.254 31.8041 11.8149L28.2512 29.5918C27.0471 29.6598 25.8955 30.1085 24.9626 30.8733C24.0296 31.638 23.3633 32.6794 23.0597 33.8474ZM28.5712 38.1358C28.0061 38.1358 27.4537 37.9681 26.9838 37.654C26.514 37.3398 26.1478 36.8933 25.9315 36.3709C25.7153 35.8485 25.6587 35.2737 25.7689 34.7191C25.8792 34.1645 26.1513 33.6551 26.5509 33.2553C26.9505 32.8554 27.4596 32.5831 28.0138 32.4728C28.5681 32.3625 29.1425 32.4191 29.6646 32.6355C30.1867 32.8519 30.6329 33.2183 30.9469 33.6885C31.2608 34.1586 31.4284 34.7114 31.4284 35.2768C31.4277 36.0348 31.1264 36.7616 30.5907 37.2976C30.0551 37.8336 29.3288 38.135 28.5712 38.1358Z" fill="#EA5436"/>
</svg>
