<svg width="47" height="44" viewBox="0 0 47 44" fill="none" xmlns="http://www.w3.org/2000/svg">
<path d="M19.9167 1.99805H5.58333C4.63297 1.99805 3.72154 2.34924 3.04953 2.97436C2.37753 3.59948 2 4.44733 2 5.33138V29.7758C2 30.6599 2.37753 31.5077 3.04953 32.1329C3.72154 32.758 4.63297 33.1092 5.58333 33.1092H41.4167C42.367 33.1092 43.2785 32.758 43.9505 32.1329C44.6225 31.5077 45 30.6599 45 29.7758V18.6647M23.5 33.1092V41.998M33.0556 1.99805L28.2778 6.44249L33.0556 10.8869M40.2222 1.99805L45 6.44249L40.2222 10.8869M11.5556 41.998H35.4444" stroke="#EA5436" stroke-width="3" stroke-linecap="round" stroke-linejoin="round"/>
</svg>
