<svg width="42" height="50" viewBox="0 0 42 50" fill="none" xmlns="http://www.w3.org/2000/svg">
<path d="M2.64606 47.8395L19.9857 18.5188M39.5812 22.5685L3.42357 48.0082C3.29328 48.1005 3.13904 48.1532 2.97948 48.1598C2.81991 48.1663 2.66186 48.1265 2.52441 48.0452C2.38695 47.9639 2.27597 47.8445 2.20488 47.7015C2.13379 47.5584 2.10563 47.3979 2.1238 47.2392L7.00002 3.29204C7.02127 3.12445 7.09331 2.96738 7.20647 2.84197C7.31963 2.71656 7.46847 2.62882 7.63298 2.59055C7.7975 2.55228 7.96978 2.56531 8.12668 2.62789C8.28358 2.69047 8.41755 2.79961 8.51059 2.94062L19.5278 17.8411C19.667 18.0566 19.8544 18.2368 20.0752 18.3674C20.296 18.4981 20.5441 18.5755 20.7999 18.5937L39.16 21.0691C39.3301 21.081 39.4923 21.1452 39.6245 21.2529C39.7566 21.3606 39.8523 21.5064 39.8984 21.6706C39.9445 21.8347 39.9388 22.0091 39.882 22.1698C39.8252 22.3305 39.7201 22.4698 39.5812 22.5685Z" stroke="black" stroke-width="3.5" stroke-linecap="round" stroke-linejoin="round"/>
</svg>
