<svg width="42" height="49" viewBox="0 0 42 49" fill="none" xmlns="http://www.w3.org/2000/svg">
<path d="M2.9859 46.84L20.3255 17.5193M39.921 21.569L3.76342 47.0087C3.63313 47.101 3.47888 47.1537 3.31932 47.1602C3.15976 47.1668 3.00171 47.127 2.86425 47.0457C2.72679 46.9644 2.61581 46.845 2.54472 46.702C2.47364 46.5589 2.44547 46.3984 2.46364 46.2397L7.33987 2.29253C7.36111 2.12493 7.43315 1.96787 7.54631 1.84246C7.65947 1.71705 7.80832 1.62931 7.97283 1.59104C8.13734 1.55277 8.30963 1.56579 8.46652 1.62838C8.62342 1.69096 8.7574 1.8001 8.85043 1.9411L19.8677 16.8416C20.0069 17.0571 20.1942 17.2373 20.415 17.3679C20.6358 17.4986 20.8839 17.576 21.1398 17.5942L39.4999 20.0696C39.6699 20.0815 39.8321 20.1457 39.9643 20.2534C40.0965 20.361 40.1922 20.5069 40.2383 20.6711C40.2844 20.8352 40.2786 21.0096 40.2218 21.1703C40.165 21.331 40.06 21.4703 39.921 21.569Z" stroke="#EA5436" stroke-width="3" stroke-linecap="round" stroke-linejoin="round"/>
</svg>
