<svg width="47" height="48" viewBox="0 0 47 48" fill="none" xmlns="http://www.w3.org/2000/svg">
<path d="M45 24.2002C45 36.0743 35.3741 45.7002 23.5 45.7002M45 24.2002C45 12.3261 35.3741 2.7002 23.5 2.7002M45 24.2002H2M23.5 45.7002C11.6259 45.7002 2 36.0743 2 24.2002M23.5 45.7002C28.8778 39.8127 31.9339 32.1723 32.1 24.2002C31.9339 16.2281 28.8778 8.58765 23.5 2.7002M23.5 45.7002C18.1222 39.8127 15.0661 32.1723 14.9 24.2002C15.0661 16.2281 18.1222 8.58765 23.5 2.7002M2 24.2002C2 12.3261 11.6259 2.7002 23.5 2.7002" stroke="black" stroke-width="3.5" stroke-linecap="round" stroke-linejoin="round"/>
</svg>
