<svg width="44" height="44" viewBox="0 0 44 44" fill="none" xmlns="http://www.w3.org/2000/svg">
<path d="M42 21.998C42 33.0437 33.0457 41.998 22 41.998M42 21.998C42 10.9524 33.0457 1.99805 22 1.99805M42 21.998H2M22 41.998C10.9543 41.998 2 33.0437 2 21.998M22 41.998C27.0026 36.5213 29.8455 29.414 30 21.998C29.8455 14.5821 27.0026 7.47475 22 1.99805M22 41.998C16.9974 36.5213 14.1545 29.414 14 21.998C14.1545 14.5821 16.9974 7.47475 22 1.99805M2 21.998C2 10.9524 10.9543 1.99805 22 1.99805" stroke="#EA5436" stroke-width="3" stroke-linecap="round" stroke-linejoin="round"/>
</svg>
