<svg width="34" height="34" viewBox="0 0 34 34" fill="none" xmlns="http://www.w3.org/2000/svg">
<path d="M32.5 17.25C32.5 25.6723 25.6723 32.5 17.25 32.5M32.5 17.25C32.5 8.82766 25.6723 2 17.25 2M32.5 17.25H2M17.25 32.5C8.82766 32.5 2 25.6723 2 17.25M17.25 32.5C21.0645 28.324 23.2322 22.9046 23.35 17.25C23.2322 11.5954 21.0645 6.17599 17.25 2M17.25 32.5C13.4355 28.324 11.2678 22.9046 11.15 17.25C11.2678 11.5954 13.4355 6.17599 17.25 2M2 17.25C2 8.82766 8.82766 2 17.25 2" stroke="black" stroke-width="2.25" stroke-linecap="round" stroke-linejoin="round"/>
</svg>
