<svg width="41" height="41" viewBox="0 0 41 41" fill="none" xmlns="http://www.w3.org/2000/svg">
<path d="M37.2727 13.0441C38.2613 13.0441 39.2093 13.4368 39.9083 14.1358C40.6073 14.8349 41 15.783 41 16.7715V24.2264C41 25.215 40.6073 26.1631 39.9083 26.8622C39.2093 27.5612 38.2613 27.9539 37.2727 27.9539H35.2935C34.8392 31.557 33.0856 34.8705 30.3619 37.2725C27.6382 39.6745 24.1315 40.9999 20.5 41V37.2725C23.4656 37.2725 26.3097 36.0944 28.4067 33.9973C30.5037 31.9002 31.6818 29.0559 31.6818 26.0902V14.9078C31.6818 11.9421 30.5037 9.09779 28.4067 7.00069C26.3097 4.90359 23.4656 3.72545 20.5 3.72545C17.5344 3.72545 14.6903 4.90359 12.5933 7.00069C10.4963 9.09779 9.31818 11.9421 9.31818 14.9078V27.9539H3.72727C2.73874 27.9539 1.79069 27.5612 1.09169 26.8622C0.392694 26.1631 0 25.215 0 24.2264V16.7715C0 15.783 0.392694 14.8349 1.09169 14.1358C1.79069 13.4368 2.73874 13.0441 3.72727 13.0441H5.70645C6.16124 9.44131 7.91501 6.1283 10.6387 3.72671C13.3624 1.32512 16.8688 0 20.5 0C24.1312 0 27.6376 1.32512 30.3613 3.72671C33.085 6.1283 34.8388 9.44131 35.2935 13.0441H37.2727ZM12.5982 27.5532L14.5736 24.3923C16.3498 25.505 18.4041 26.0936 20.5 26.0902C22.5959 26.0936 24.6502 25.505 26.4264 24.3923L28.4018 27.5532C26.0336 29.037 23.2946 29.8219 20.5 29.8176C17.7054 29.8219 14.9664 29.037 12.5982 27.5532Z" fill="black"/>
</svg>
